<svg xmlns="http://www.w3.org/2000/svg" width="300" height="300" viewBox="0 0 300 300" role="img" aria-label="Tournament bracket logo">
  <!-- Transparent background -->

  <!-- Bracket lines -->
  <g fill="none" stroke="#000" stroke-width="4" stroke-linecap="round" stroke-linejoin="round">
    <!-- LEFT: Round 1 -->
    <path d="M60 60 H90 M60 90 H90 M90 60 V90 M90 75 H110" />
    <path d="M60 120 H90 M60 150 H90 M90 120 V150 M90 135 H110" />
    <path d="M60 180 H90 M60 210 H90 M90 180 V210 M90 195 H110" />
    <path d="M60 240 H90 M60 270 H90 M90 240 V270 M90 255 H110" />

    <!-- LEFT: Round 2 -->
    <path d="M110 75 V135 M110 105 H130" />
    <path d="M110 195 V255 M110 225 H130" />

    <!-- LEFT: Round 3 -->
    <path d="M130 105 V225 M130 165 H145" />

    <!-- RIGHT: Round 1 -->
    <path d="M240 60 H210 M240 90 H210 M210 60 V90 M210 75 H190" />
    <path d="M240 120 H210 M240 150 H210 M210 120 V150 M210 135 H190" />
    <path d="M240 180 H210 M240 210 H210 M210 180 V210 M210 195 H190" />
    <path d="M240 240 H210 M240 270 H210 M210 240 V270 M210 255 H190" />

    <!-- RIGHT: Round 2 -->
    <path d="M190 75 V135 M190 105 H170" />
    <path d="M190 195 V255 M190 225 H170" />

    <!-- RIGHT: Round 3 -->
    <path d="M170 105 V225 M170 165 H155" />

    <!-- Championship connector -->
    <path d="M145 165 H155" />
  </g>

  <!-- Champion node -->
  <circle cx="150" cy="165" r="5" fill="#000"/>
</svg>
