<svg xmlns="http://www.w3.org/2000/svg" version="1.0" width="300.000000pt" height="300.000000pt" viewBox="0 0 300 300" preserveAspectRatio="xMidYMid meet" transform="matrix(-1, 0, 0, 1, 0, 0)">
<metadata fill="#724c96">
Created by potrace 1.10, written by Peter Selinger 2001-2011
</metadata>
<g transform="translate(0.000000,300.000000) scale(0.100000,-0.100000)" fill="#0e0303" stroke="none">
<path d="M460 2990 c0 -21 -81 -63 -125 -65 -46 -1 -89 -24 -49 -26 10 0 29 -2 42 -5 12 -2 22 0 22 5 0 5 15 14 34 21 42 14 119 79 94 80 -10 0 -18 -4 -18 -10z" fill="#724c96"/>
<path d="M1184 2987 c-8 -10 -7 -19 7 -36 15 -18 19 -19 19 -7 0 9 -4 16 -10 16 -5 0 -10 5 -10 11 0 6 9 9 19 6 14 -3 18 -1 14 9 -6 17 -24 17 -39 1z" fill="#724c96"/>
<path d="M1343 2993 c-7 -2 -13 -9 -13 -15 0 -6 6 -8 14 -5 7 3 21 -4 30 -14 10 -12 22 -17 29 -12 9 5 7 9 -5 11 -10 2 -18 12 -18 23 0 19 -12 23 -37 12z" fill="#724c96"/>
<path d="M418 2916 c-19 -14 -25 -32 -8 -21 5 3 19 1 30 -5 23 -12 26 -2 8 23 -11 13 -16 14 -30 3z" fill="#724c96"/>
<path d="M1260 2912 c0 -13 -4 -20 -10 -17 -6 4 -8 11 -5 16 4 5 1 9 -4 9 -14 0 -14 -17 0 -25 6 -4 8 -14 4 -23 -6 -16 10 -32 32 -32 15 0 13 37 -4 70 l-13 25 0 -23z" fill="#724c96"/>
<path d="M214 2866 c-33 -33 -43 -56 -25 -56 6 0 13 5 16 10 4 6 10 8 15 5 5 -3 11 -1 15 5 3 5 11 10 17 10 7 0 7 -4 0 -12 -6 -7 -12 -17 -14 -23 -1 -5 -8 -9 -15 -7 -6 1 -14 -2 -17 -7 -3 -5 2 -8 12 -7 12 1 17 -6 17 -26 -1 -15 4 -24 10 -21 21 12 45 36 45 46 0 5 -8 6 -17 3 -15 -5 -15 -4 1 9 11 8 16 15 10 15 -5 0 -2 5 6 10 9 6 10 10 3 10 -6 0 -15 -4 -18 -10 -3 -5 -11 -10 -17 -10 -7 0 -6 5 1 14 14 17 0 29 -23 20 -9 -3 -16 -2 -16 4 0 15 49 21 61 6 17 -21 51 -21 92 -2 43 21 46 26 13 24 -13 0 -22 -5 -18 -10 3 -5 -2 -6 -12 -3 -10 4 -15 3 -11 -3 3 -6 -3 -10 -15 -10 -12 0 -18 5 -15 10 3 6 -1 10 -9 10 -9 0 -16 5 -16 11 0 6 -9 8 -21 4 -15 -5 -19 -4 -15 4 14 22 -7 10 -40 -23z" fill="#724c96"/>
<path d="M1110 2856 c0 -18 -35 -48 -45 -39 -4 5 -5 2 -1 -4 9 -16 11 -16 30 3 9 8 16 11 16 5 0 -6 7 -11 15 -11 8 0 15 7 15 15 0 9 -6 12 -17 9 -17 -5 -17 -5 0 9 15 13 16 15 2 21 -9 3 -15 0 -15 -8z" fill="#724c96"/>
<path d="M2630 2831 c0 -6 5 -13 11 -16 18 -11 28 -49 15 -58 -7 -6 -6 -7 4 -4 8 2 21 -2 28 -10 7 -7 18 -13 24 -13 6 0 0 9 -13 19 -14 10 -31 35 -39 55 -13 33 -30 49 -30 27z" fill="#724c96"/>
<path d="M130 2801 c-30 -26 -32 -29 -12 -24 13 3 26 12 29 19 3 8 9 11 14 8 5 -3 9 2 9 10 0 21 0 21 -40 -13z" fill="#724c96"/>
<path d="M1275 2820 c6 -10 4 -12 -8 -7 -11 4 -14 2 -10 -9 3 -7 9 -14 14 -14 5 0 9 -7 9 -16 0 -8 5 -12 11 -9 6 4 8 10 5 13 -10 9 15 31 30 25 8 -3 14 1 14 9 0 18 -27 19 -34 1 -3 -7 -10 -13 -16 -13 -6 0 -9 4 -5 9 3 5 0 13 -6 17 -8 5 -9 3 -4 -6z" fill="#724c96"/>
<path d="M2320 2810 c-8 -4 -26 -13 -40 -19 -14 -6 -16 -9 -5 -6 18 4 20 1 17 -50 -2 -30 -8 -55 -13 -55 -14 0 -39 57 -33 77 5 16 4 16 -10 -1 -16 -19 -16 -19 -38 1 -13 11 -30 23 -38 27 -16 8 -9 1 41 -39 14 -11 33 -32 43 -47 17 -26 15 -33 -7 -29 -4 1 0 -10 8 -23 12 -17 14 -35 9 -60 -7 -41 10 -71 35 -61 8 3 12 3 8 -1 -4 -4 1 -13 11 -20 13 -10 6 -10 -31 1 -34 10 -55 12 -67 5 -25 -13 -22 -14 -61 23 -32 29 -51 56 -103 140 -9 15 -21 27 -27 27 -6 0 -25 10 -42 22 -17 12 -27 16 -23 10 4 -7 26 -24 47 -38 22 -14 43 -33 46 -42 4 -9 17 -34 30 -55 29 -46 24 -56 -14 -32 -24 16 -26 16 -14 2 7 -10 25 -23 39 -30 35 -17 43 -42 11 -35 -13 3 -49 2 -79 -2 -37 -5 -44 -8 -22 -9 17 0 32 -4 32 -7 0 -12 -34 -33 -53 -34 -10 0 -32 -7 -49 -16 -22 -11 -33 -13 -41 -5 -6 6 -19 11 -30 11 -11 0 -15 4 -11 12 4 7 3 8 -5 4 -15 -9 -5 -26 16 -26 9 0 22 -8 29 -17 11 -14 15 -15 22 -5 10 14 97 44 105 35 3 -2 15 9 27 25 19 26 26 29 54 22 18 -4 44 -15 58 -24 25 -16 28 -16 64 3 42 23 74 27 74 11 0 -5 15 -10 34 -10 18 0 39 -7 46 -15 7 -8 19 -15 26 -15 7 0 20 -12 28 -27 8 -16 15 -23 16 -18 0 6 4 3 10 -5 18 -28 24 2 7 33 -17 32 -17 32 2 10 13 -16 20 -19 24 -10 5 14 -25 57 -40 57 -19 0 -82 106 -89 148 -4 27 -10 39 -15 31 -6 -10 -11 -10 -23 0 -25 21 -21 109 6 138 23 24 22 27 -2 13z m-8 -170 c14 -11 28 -33 32 -50 3 -17 18 -46 32 -65 15 -19 22 -35 18 -35 -5 0 -2 -5 6 -10 9 -6 10 -10 3 -10 -7 0 -16 6 -20 13 -4 8 -21 22 -38 32 -42 26 -55 44 -55 78 0 15 -5 37 -10 48 -14 25 0 24 32 -1z m-161 -131 c9 -17 17 -20 42 -15 l32 6 -24 -16 c-17 -12 -28 -14 -39 -8 -22 14 -47 54 -34 54 6 0 16 -9 23 -21z" fill="#724c96"/>
<path d="M711 2794 c7 -9 5 -14 -10 -19 -23 -7 -27 -20 -9 -31 7 -4 8 -3 4 4 -7 12 5 16 32 13 8 -1 20 3 27 9 8 7 23 9 35 5 11 -3 20 -2 20 3 0 5 -25 13 -55 19 -43 7 -52 7 -44 -3z" fill="#724c96"/>
<path d="M1230 2800 c0 -6 -4 -8 -10 -5 -5 3 -10 1 -10 -5 0 -6 -6 -8 -12 -4 -10 6 -10 4 0 -7 17 -18 15 -40 -5 -55 -17 -12 -16 -13 5 -11 12 1 22 8 23 17 0 10 2 11 6 3 2 -7 13 -13 23 -13 13 0 17 7 15 29 -2 28 -35 75 -35 51z" fill="#724c96"/>
<path d="M157 2768 c-11 -9 -14 -18 -8 -27 7 -11 11 -9 20 8 7 12 17 18 23 15 7 -4 8 -3 4 4 -9 15 -18 15 -39 0z" fill="#724c96"/>
<path d="M887 2773 c-4 -3 -21 -6 -38 -5 -50 1 -19 -20 34 -23 30 -2 51 3 68 16 l24 18 -22 -2 c-13 -1 -23 -4 -23 -8 0 -4 -9 -9 -21 -12 -15 -4 -19 -2 -15 9 6 15 3 18 -7 7z" fill="#724c96"/>
<path d="M200 2741 c-6 -13 -6 -22 -1 -26 9 -5 31 24 31 39 0 14 -20 4 -30 -13z" fill="#724c96"/>
<path d="M172 2721 c-7 -19 -19 -31 -33 -33 -36 -5 -36 -29 0 -25 39 5 41 6 46 51 6 44 1 46 -13 7z" fill="#724c96"/>
<path d="M578 2738 c-11 -6 -11 -10 0 -16 16 -11 82 -1 85 13 3 12 -67 15 -85 3z" fill="#724c96"/>
<path d="M110 2710 c-26 -22 -23 -24 14 -10 14 5 26 14 26 20 0 16 -15 12 -40 -10z" fill="#724c96"/>
<path d="M251 2711 c-12 -12 -28 -18 -38 -15 -15 5 -16 4 -3 -5 9 -7 11 -14 5 -18 -15 -12 -41 -48 -29 -40 8 4 10 -10 8 -46 l-3 -52 11 48 c5 26 14 47 19 47 5 0 9 5 9 12 0 6 12 26 26 45 30 39 26 55 -5 24z" fill="#724c96"/>
<path d="M482 2704 c-27 -16 -48 -38 -57 -60 -11 -27 -20 -35 -36 -32 -12 2 -24 -2 -26 -8 -5 -15 43 -10 62 6 8 7 15 19 15 27 0 16 38 52 56 53 13 0 51 40 38 40 -5 0 -28 -12 -52 -26z" fill="#724c96"/>
<path d="M917 2678 c-3 -31 -1 -57 5 -63 7 -7 9 -7 6 0 -3 6 -2 34 1 63 4 28 4 52 0 52 -3 0 -9 -24 -12 -52z" fill="#724c96"/>
<path d="M2592 2718 c-7 -7 -12 -9 -12 -4 0 4 -15 -9 -34 -28 -31 -34 -55 -48 -41 -26 3 6 1 10 -4 10 -6 0 -11 -9 -11 -21 0 -15 -5 -19 -15 -15 -12 4 -13 2 -2 -17 6 -12 22 -33 33 -47 31 -36 39 -69 19 -76 -12 -5 -13 -9 -4 -20 9 -11 8 -18 -5 -32 -9 -10 -13 -22 -9 -25 3 -4 1 -7 -6 -7 -7 0 -10 -4 -7 -9 4 -5 -7 -22 -23 -38 -25 -25 -30 -27 -39 -14 -10 14 -11 14 -11 -1 -1 -10 9 -22 20 -29 12 -6 19 -7 15 -1 -7 12 38 62 56 62 7 0 3 -8 -10 -18 -16 -12 -21 -25 -18 -42 2 -14 9 -24 15 -23 6 2 18 -12 27 -30 9 -17 17 -33 19 -34 1 -2 23 -9 48 -17 41 -12 47 -12 47 1 0 8 -4 11 -10 8 -16 -10 -70 24 -90 58 -20 33 -26 67 -12 67 9 0 32 102 32 141 0 13 11 37 25 53 14 16 25 41 24 55 -1 24 -1 24 -10 -6 -12 -42 -20 -46 -58 -27 -41 20 -41 55 -1 94 17 17 35 30 40 30 5 0 14 9 20 20 12 23 9 25 -8 8z" fill="#724c96"/>
<path d="M734 2705 c-4 -8 -7 -28 -9 -43 -2 -24 -10 -52 -22 -74 -2 -5 0 -8 5 -8 12 0 34 59 26 71 -3 5 2 12 10 15 18 7 22 39 6 49 -6 3 -13 -1 -16 -10z" fill="#724c96"/>
<path d="M847 2685 c-5 -22 -11 -49 -14 -60 -5 -17 -4 -18 10 -6 9 7 14 17 11 22 -3 5 0 9 7 9 7 0 9 3 6 7 -4 3 -1 13 6 21 8 11 8 14 0 9 -7 -5 -13 1 -15 15 -3 17 -6 12 -11 -17z" fill="#724c96"/>
<path d="M644 2697 c-5 -15 -9 -16 -16 -5 -7 9 -8 7 -3 -7 4 -11 10 -30 12 -42 6 -27 26 -31 21 -5 -1 9 1 23 5 29 5 7 4 21 -2 30 -9 17 -10 17 -17 0z" fill="#724c96"/>
<path d="M1150 2701 c0 -6 10 -11 23 -12 12 0 34 -2 49 -3 14 -1 25 1 22 5 -2 4 -19 7 -38 7 -19 0 -39 3 -45 7 -6 3 -11 1 -11 -4z" fill="#724c96"/>
<path d="M1120 2692 c0 -7 5 -12 10 -12 6 0 10 -6 11 -12 1 -19 66 -71 81 -65 9 3 6 8 -7 13 -23 9 -45 36 -39 46 3 5 0 8 -7 8 -7 0 -21 7 -31 17 -11 9 -18 11 -18 5z" fill="#724c96"/>
<path d="M1335 2680 c-11 -13 -14 -20 -6 -20 7 0 9 -5 5 -12 -5 -7 -3 -8 6 -3 9 6 12 4 8 -7 -4 -8 -2 -21 3 -29 6 -10 9 -10 9 -1 0 6 4 12 9 12 12 0 9 -33 -4 -42 -6 -5 -3 -8 6 -8 24 0 29 34 10 67 -10 15 -16 33 -14 40 7 21 -14 23 -32 3z" fill="#724c96"/>
<path d="M2655 2679 c-22 -12 -42 -25 -43 -30 -2 -5 -9 -6 -14 -3 -7 4 -8 2 -4 -4 9 -15 7 -16 46 13 19 14 48 25 64 25 24 0 27 3 16 10 -20 13 -20 13 -65 -11z" fill="#724c96"/>
<path d="M84 2662 c-5 -18 -9 -20 -15 -10 -7 10 -9 8 -10 -7 -1 -11 -1 -24 0 -28 2 -12 -26 -37 -33 -30 -3 4 -6 1 -6 -5 0 -5 -3 -18 -7 -28 -4 -12 -3 -15 5 -10 8 5 12 0 12 -13 0 -12 -5 -21 -11 -21 -6 0 -8 -7 -5 -16 3 -8 2 -12 -4 -9 -6 3 -10 -4 -9 -17 0 -13 3 -17 6 -10 2 6 8 10 13 7 10 -6 53 93 46 110 -3 8 2 19 10 26 8 6 12 14 9 17 -3 3 1 13 9 21 10 11 12 21 5 31 -7 12 -10 11 -15 -8z" fill="#724c96"/>
<path d="M1261 2663 c-1 -13 -5 -23 -10 -23 -5 0 -4 -11 2 -25 12 -26 29 -34 25 -12 -2 6 4 11 12 9 8 -2 12 0 8 4 -4 4 -2 14 4 23 8 10 4 9 -10 -3 -12 -11 -25 -16 -29 -12 -4 4 -3 10 3 14 7 4 8 15 3 27 -7 19 -8 19 -8 -2z" fill="#724c96"/>
<path d="M1565 2640 c6 -18 3 -20 -19 -16 -29 5 -44 -10 -27 -27 9 -9 11 -8 5 6 -5 15 -3 16 17 8 13 -5 29 -10 34 -11 6 -1 9 -6 7 -12 -1 -5 2 -7 8 -3 5 3 10 -1 10 -10 0 -9 5 -13 10 -10 7 5 8 11 1 19 -12 15 3 41 18 32 6 -4 11 -3 11 2 0 6 -7 12 -15 16 -8 3 -15 1 -15 -4 0 -5 -7 -7 -15 -4 -8 4 -15 12 -15 20 0 8 -5 14 -11 14 -6 0 -8 -9 -4 -20z" fill="#724c96"/>
<path d="M120 2629 l-25 -21 29 17 29 17 -5 -26 c-5 -27 6 -36 15 -12 3 8 0 21 -6 30 -11 14 -15 13 -37 -5z" fill="#724c96"/>
<path d="M494 2629 c-16 -19 -23 -89 -9 -89 6 0 5 -4 -2 -8 -7 -5 -9 -13 -4 -21 15 -24 32 25 29 81 -2 40 -5 48 -14 37z" fill="#724c96"/>
<path d="M1440 2595 c-2 -11 -3 -26 -3 -32 1 -7 -4 -10 -9 -7 -5 4 -7 15 -5 26 4 15 3 17 -8 8 -8 -6 -12 -19 -10 -29 2 -10 -3 -18 -11 -19 -8 -1 -21 -3 -29 -4 -24 -2 -17 -24 8 -22 42 4 66 16 83 41 9 14 11 23 6 19 -6 -3 -13 4 -15 16 -4 21 -5 21 -7 3z" fill="#724c96"/>
<path d="M80 2590 c-12 -8 -10 -10 8 -10 20 0 22 -5 22 -52 0 -28 3 -48 7 -44 4 4 8 33 8 64 1 31 -1 50 -3 44 -3 -9 -8 -10 -16 -3 -7 6 -17 6 -26 1z" fill="#724c96"/>
<path d="M1289 2579 c-6 -12 -7 -19 -2 -16 5 3 15 2 23 -3 18 -11 41 7 33 27 -5 12 -7 12 -14 1 -7 -10 -9 -10 -9 0 0 19 -18 14 -31 -9z" fill="#724c96"/>
<path d="M2724 2580 c-12 -5 -25 -13 -29 -19 -3 -6 -21 -11 -38 -11 -18 0 -43 -10 -57 -21 l-25 -21 28 17 c16 9 35 14 42 11 7 -2 31 4 52 15 21 11 43 17 50 14 7 -2 13 0 13 5 0 5 7 6 17 3 11 -4 14 -3 9 5 -8 14 -32 14 -62 2z" fill="#724c96"/>
<path d="M136 2563 c-4 -9 0 -23 9 -32 13 -14 15 -13 15 11 0 32 -15 45 -24 21z" fill="#724c96"/>
<path d="M1190 2573 c0 -21 36 -35 49 -19 9 10 8 15 -3 19 -9 4 -18 1 -22 -5 -4 -7 -9 -6 -15 3 -6 10 -9 10 -9 2z" fill="#724c96"/>
<path d="M343 2548 c-6 -7 -16 -24 -22 -38 -12 -24 -11 -24 13 3 14 15 26 32 26 38 0 12 -6 11 -17 -3z" fill="#724c96"/>
<path d="M367 2543 c-10 -10 -8 -25 2 -18 5 3 12 -7 14 -22 3 -23 4 -21 6 10 1 35 -7 46 -22 30z" fill="#724c96"/>
<path d="M404 2529 c17 -82 17 -101 0 -120 -16 -17 -16 -19 -1 -19 10 0 17 5 17 10 0 21 20 9 21 -12 0 -13 3 -17 6 -11 2 7 -1 30 -8 50 -7 21 -12 52 -10 69 1 18 -4 36 -14 44 -14 12 -16 11 -11 -11z" fill="#724c96"/>
<path d="M1420 2496 c0 -7 7 -19 15 -26 11 -9 15 -9 15 -1 0 7 4 9 10 6 6 -4 7 1 3 11 -4 11 -8 13 -11 6 -2 -7 -8 -12 -13 -12 -4 0 -6 7 -3 15 4 8 1 15 -5 15 -6 0 -11 -6 -11 -14z" fill="#724c96"/>
<path d="M42 2473 c-19 -36 -22 -81 -7 -87 10 -4 15 2 16 17 0 12 2 37 3 55 4 36 1 40 -12 15z" fill="#724c96"/>
<path d="M1302 2470 c-15 -25 -9 -39 16 -35 9 2 21 4 25 4 5 1 5 6 2 12 -4 6 -13 8 -20 5 -8 -3 -11 2 -8 15 7 25 1 24 -15 -1z" fill="#724c96"/>
<path d="M1541 2476 c-1 -15 -4 -16 -16 -6 -25 21 -24 7 1 -18 13 -12 24 -18 24 -12 0 5 15 10 33 10 18 0 39 6 46 13 11 10 12 8 6 -12 -5 -17 -4 -22 6 -19 7 2 13 14 14 26 1 12 0 20 -3 18 -2 -2 -17 0 -34 6 -25 9 -32 8 -40 -6 -12 -21 -25 -20 -31 2 -4 15 -5 15 -6 -2z" fill="#724c96"/>
<path d="M2770 2434 c-22 -22 -41 -34 -52 -31 -10 3 -18 1 -18 -4 0 -16 37 -9 64 12 l27 21 -6 -25 c-4 -14 -3 -27 2 -30 4 -3 8 9 7 26 0 18 4 40 8 50 12 23 8 21 -32 -19z" fill="#724c96"/>
<path d="M1365 2440 c4 -6 10 -8 15 -5 5 3 12 -6 16 -20 7 -28 19 -33 28 -9 3 8 2 13 -3 10 -5 -3 -11 3 -14 14 -3 12 -14 20 -27 20 -12 0 -18 -4 -15 -10z" fill="#724c96"/>
<path d="M2853 2401 c-9 -26 -9 -29 8 -28 24 2 31 21 16 41 -11 15 -14 13 -24 -13z" fill="#724c96"/>
<path d="M2935 2410 c-10 -11 -14 -20 -9 -20 5 0 3 -4 -5 -9 -7 -5 -11 -15 -9 -22 3 -8 14 3 27 29 24 47 23 52 -4 22z" fill="#724c96"/>
<path d="M1456 2405 c-11 -8 -14 -15 -8 -15 19 0 82 -61 75 -73 -4 -6 -1 -7 6 -3 7 5 10 11 7 14 -3 3 -1 11 5 18 8 10 6 12 -10 9 -23 -4 -29 10 -8 18 7 3 4 6 -6 6 -10 1 -16 5 -12 10 3 5 0 13 -6 17 -8 4 -9 3 -5 -4 4 -7 1 -12 -9 -12 -11 0 -15 5 -11 15 7 18 6 18 -18 0z" fill="#724c96"/>
<path d="M2295 2400 c-4 -12 1 -31 13 -48 10 -15 17 -34 15 -42 -4 -13 -3 -13 5 -1 11 16 -4 61 -21 61 -5 0 -6 11 -3 25 8 30 0 34 -9 5z" fill="#724c96"/>
<path d="M556 2401 c-4 -6 0 -14 8 -17 9 -3 14 -10 11 -14 -3 -5 -1 -11 5 -15 16 -10 12 -28 -5 -21 -8 3 -14 0 -12 -6 1 -6 -4 -13 -12 -16 -9 -3 -11 0 -6 8 6 9 4 11 -4 5 -9 -5 -10 -10 -2 -18 7 -7 19 -4 38 9 15 10 33 17 38 15 6 -1 7 0 3 4 -4 4 -2 19 3 34 l9 26 -20 -25 c-14 -18 -20 -20 -20 -9 0 24 -26 54 -34 40z" fill="#724c96"/>
<path d="M476 2375 c-3 -13 -14 -26 -24 -28 -13 -4 -11 -5 6 -6 13 -1 22 5 22 14 0 7 7 18 16 23 14 8 14 10 1 15 -10 4 -17 -2 -21 -18z" fill="#724c96"/>
<path d="M1590 2384 c0 -9 11 -25 25 -36 14 -11 22 -24 19 -30 -5 -7 -2 -8 5 -4 9 6 9 12 -3 25 -18 20 -21 35 -5 26 6 -4 5 2 -3 14 -15 25 -38 28 -38 5z" fill="#724c96"/>
<path d="M70 2370 c0 -24 58 -54 84 -44 9 3 16 1 16 -6 0 -6 -4 -8 -10 -5 -14 9 -12 -18 3 -34 10 -11 7 -12 -17 -7 -35 9 -88 -2 -80 -16 4 -5 20 -8 38 -5 17 2 59 0 94 -5 42 -6 73 -6 90 0 15 6 36 14 47 18 11 4 25 8 30 8 6 1 9 9 7 17 -2 12 5 15 25 13 16 -2 21 -1 12 2 -9 3 -16 13 -14 22 1 9 0 12 -2 6 -2 -7 -13 -10 -24 -7 -14 4 -18 1 -13 -10 4 -12 -8 -20 -50 -33 -53 -17 -58 -17 -91 -1 -19 9 -35 24 -35 32 0 18 -44 38 -80 36 -14 0 -20 2 -14 7 9 5 8 11 -2 20 -12 11 -14 9 -14 -8z" fill="#724c96"/>
<path d="M496 2345 c-5 -16 -8 -34 -7 -39 1 -5 -4 -6 -11 -3 -7 3 -22 8 -33 12 -20 7 -20 7 0 -6 28 -18 145 -48 145 -38 0 5 7 6 16 2 14 -5 15 -3 5 15 -7 12 -14 22 -17 22 -3 0 -3 -4 0 -9 9 -14 -16 -19 -43 -9 -14 5 -30 7 -37 4 -7 -3 -15 1 -18 9 -3 8 0 15 6 17 5 2 8 15 6 28 -3 24 -4 24 -12 -5z" fill="#724c96"/>
<path d="M2570 2350 c-11 -7 -9 -11 13 -19 35 -13 37 -13 37 -1 0 6 -7 10 -16 10 -8 0 -12 5 -9 10 8 12 -5 13 -25 0z" fill="#724c96"/>
<path d="M2823 2330 c-6 -17 -7 -30 -2 -30 12 0 43 49 35 57 -3 3 -6 0 -6 -8 0 -10 -2 -11 -8 -2 -5 8 -12 3 -19 -17z" fill="#724c96"/>
<path d="M206 2333 c-5 -11 0 -22 11 -31 15 -11 18 -11 21 3 8 38 -20 61 -32 28z" fill="#724c96"/>
<path d="M1446 2325 c-3 -8 0 -14 7 -12 7 1 11 -8 11 -20 -1 -13 3 -20 7 -17 5 3 7 10 4 15 -4 5 1 12 10 15 14 6 14 8 -2 20 -23 17 -30 17 -37 -1z" fill="#724c96"/>
<path d="M1816 2331 c-4 -5 2 -15 11 -21 15 -10 14 -10 -9 -6 -15 4 -30 2 -33 -4 -3 -5 0 -7 8 -4 8 3 18 0 22 -6 3 -6 1 -9 -6 -8 -6 2 -13 -3 -14 -10 -2 -7 -1 -8 1 -3 3 6 12 7 20 4 8 -3 14 1 14 8 0 8 6 5 15 -7 13 -17 14 -16 5 15 -11 40 -25 57 -34 42z" fill="#724c96"/>
<path d="M623 2323 c-10 -3 -10 -9 0 -24 6 -10 16 -19 21 -19 5 0 15 -8 23 -17 8 -10 12 -12 8 -5 -4 7 1 12 12 13 17 0 17 1 0 8 -10 4 -18 10 -18 14 2 29 -18 42 -46 30z" fill="#724c96"/>
<path d="M2857 2285 c-63 -43 -67 -47 -32 -41 27 5 94 60 84 70 -2 2 -26 -11 -52 -29z" fill="#724c96"/>
<path d="M2397 2299 c-9 -6 -27 -7 -39 -3 -18 5 -20 3 -15 -16 5 -20 4 -21 -12 -6 -19 18 -71 22 -71 6 0 -5 5 -10 10 -10 31 0 -19 -59 -51 -60 -9 0 -21 10 -28 23 -17 33 -51 53 -61 36 -5 -7 -30 -13 -60 -13 -38 -1 -55 -6 -65 -20 -11 -14 -22 -17 -57 -12 -30 4 -37 3 -23 -3 11 -5 31 -10 45 -10 15 -1 31 -6 38 -13 9 -9 11 -7 7 10 -5 29 5 34 84 38 65 4 66 3 83 -26 18 -31 45 -39 66 -18 7 7 12 8 12 2 0 -16 -40 -35 -61 -29 -13 4 -19 2 -19 -9 0 -9 -8 -16 -17 -17 -11 0 -13 -3 -5 -6 6 -2 12 -14 13 -26 0 -22 0 -22 9 1 17 40 28 23 29 -45 1 -38 6 -81 11 -98 9 -26 9 -24 5 18 -6 60 5 143 16 125 6 -9 9 -4 9 16 0 23 4 27 20 23 16 -4 18 -1 14 22 -4 18 0 32 10 40 11 9 16 10 16 2 0 -8 6 -9 18 -3 26 14 133 24 146 14 18 -15 69 -24 61 -12 -3 5 -15 10 -26 10 -11 0 -19 7 -19 16 0 8 -4 13 -9 10 -5 -3 -14 0 -20 8 -8 9 -27 13 -54 10 -31 -2 -37 -1 -21 6 12 5 25 13 29 19 8 13 5 13 -18 0z" fill="#724c96"/>
<path d="M397 2261 c-18 -30 -30 -128 -19 -146 4 -5 8 -21 10 -35 6 -41 13 -37 11 6 -2 25 4 49 14 64 21 30 21 40 1 40 -12 0 -14 5 -9 18 9 20 19 82 13 82 -2 0 -12 -13 -21 -29z" fill="#724c96"/>
<path d="M1621 2254 c10 -12 10 -17 0 -23 -7 -5 1 -8 18 -8 27 0 29 2 18 16 -15 20 -29 31 -41 31 -5 0 -3 -7 5 -16z" fill="#724c96"/>
<path d="M470 2251 c0 -5 -2 -16 -5 -24 -4 -8 0 -14 10 -14 9 0 15 9 15 24 0 13 -4 23 -10 23 -5 0 -10 -4 -10 -9z" fill="#724c96"/>
<path d="M556 2243 c-3 -8 -6 -24 -5 -36 l0 -22 16 23 c8 12 24 22 35 22 29 0 16 22 -14 26 -16 1 -29 -3 -32 -13z" fill="#724c96"/>
<path d="M689 2234 c-5 -15 -7 -29 -5 -31 9 -10 26 9 26 29 0 18 2 19 18 7 15 -13 16 -12 3 4 -19 24 -30 21 -42 -9z" fill="#724c96"/>
<path d="M647 2228 c-3 -13 -1 -45 3 -73 7 -50 7 -49 9 23 1 73 -3 90 -12 50z" fill="#724c96"/>
<path d="M17 2229 c-16 -9 -18 -22 -16 -94 2 -46 6 -82 10 -79 4 2 9 -2 12 -8 2 -7 3 11 1 40 -1 28 2 52 7 52 5 0 9 12 9 28 0 21 7 30 32 41 18 8 27 16 19 19 -7 2 -18 -1 -24 -7 -16 -16 -40 -14 -33 4 6 18 6 18 -17 4z" fill="#724c96"/>
<path d="M180 2215 c0 -13 -4 -14 -20 -5 -16 8 -28 8 -49 -1 -22 -10 -26 -17 -23 -40 2 -17 9 -26 15 -22 5 3 7 1 4 -4 -12 -19 -16 -83 -6 -83 6 0 7 5 4 10 -3 6 -1 10 5 10 7 0 9 8 5 19 -6 20 13 71 26 71 5 0 6 7 3 15 -4 8 -2 15 3 15 15 0 33 -47 27 -67 -5 -15 -4 -16 5 -3 9 13 14 100 5 100 -2 0 -4 -7 -4 -15z" fill="#724c96"/>
<path d="M255 2209 c-4 -5 -5 -13 -2 -15 3 -3 1 -19 -3 -35 -6 -20 -5 -39 2 -55 l12 -25 12 23 c9 16 9 27 2 35 -6 7 -8 27 -6 43 5 32 -5 49 -17 29z" fill="#724c96"/>
<path d="M297 2203 c-4 -3 -2 -12 3 -18 7 -8 7 -30 0 -65 -13 -67 -13 -93 0 -85 6 4 9 18 8 33 -1 15 4 38 11 50 14 26 7 72 -10 72 -6 0 -7 5 -4 10 7 11 2 13 -8 3z" fill="#724c96"/>
<path d="M2490 2200 c0 -5 6 -10 14 -10 9 0 12 -7 9 -20 -3 -11 -1 -20 3 -21 5 0 20 -3 34 -5 23 -4 23 -3 -10 31 -34 35 -50 43 -50 25z" fill="#724c96"/>
<path d="M63 2167 c0 -14 -8 -39 -16 -56 -9 -17 -11 -28 -5 -25 10 6 4 -87 -8 -129 -3 -9 2 -24 10 -33 9 -8 17 -27 17 -42 2 -24 2 -24 6 -4 3 13 9 19 15 16 8 -5 9 -1 5 10 -4 10 -7 25 -7 34 0 12 -3 13 -8 5 -4 -7 -8 22 -9 63 0 41 3 77 8 80 11 7 11 75 0 93 -6 9 -8 6 -8 -12z" fill="#724c96"/>
<path d="M1979 2173 c-37 -46 -58 -82 -45 -77 8 3 20 19 27 35 9 23 14 27 21 17 8 -10 9 -9 5 3 -3 9 0 22 6 28 6 6 9 11 6 11 -3 0 -12 -8 -20 -17z" fill="#724c96"/>
<path d="M2385 2180 c-6 -10 -5 -11 13 -14 12 -2 38 -29 45 -46 4 -11 6 -9 6 6 1 11 -9 30 -22 42 -26 25 -33 27 -42 12z" fill="#724c96"/>
<path d="M2671 2164 c5 -6 5 -15 1 -20 -4 -4 1 -2 10 5 10 7 27 11 38 8 11 -3 20 -2 20 3 0 4 -18 10 -39 12 -28 2 -37 0 -30 -8z" fill="#724c96"/>
<path d="M480 2163 c0 -5 -14 -17 -30 -27 -18 -10 -27 -22 -23 -29 5 -8 8 -8 11 1 2 7 10 12 18 12 9 0 12 5 9 10 -3 6 -2 10 4 10 5 0 13 -4 16 -10 11 -18 26 -10 23 12 -3 20 -28 39 -28 21z" fill="#724c96"/>
<path d="M1735 2157 c-8 -4 -20 -5 -27 -1 -6 4 -2 -8 8 -25 l19 -32 6 28 c4 15 7 24 8 19 0 -5 7 -3 15 3 11 9 15 9 18 -1 3 -8 6 -8 10 3 7 17 -31 21 -57 6z" fill="#724c96"/>
<path d="M2991 2163 c0 -7 -10 -22 -21 -33 -12 -12 -15 -20 -7 -20 24 0 39 18 34 41 -2 13 -5 18 -6 12z" fill="#724c96"/>
<path d="M200 2149 c0 -3 9 -23 20 -45 12 -25 19 -32 19 -19 -1 26 -17 74 -18 55 -1 -13 -2 -13 -11 0 -5 8 -10 12 -10 9z" fill="#724c96"/>
<path d="M1274 2136 c-6 -7 -16 -22 -23 -33 -15 -29 -76 -65 -112 -67 -16 0 -29 -6 -29 -13 0 -7 -4 -13 -10 -13 -5 0 -9 -6 -7 -12 1 -8 -9 -13 -25 -12 -15 0 -25 -3 -23 -7 6 -8 -51 -59 -66 -59 -7 0 -9 -10 -5 -26 6 -21 3 -27 -14 -31 -11 -3 -27 -17 -34 -32 -12 -22 -12 -28 1 -40 8 -7 12 -20 9 -28 -3 -8 -1 -11 4 -8 6 3 10 12 10 19 0 8 7 19 16 27 10 8 13 21 9 36 -3 13 -1 23 5 23 5 0 10 -6 10 -13 0 -8 7 -14 15 -14 8 0 16 6 19 14 3 7 12 13 21 13 8 0 15 5 15 11 0 5 5 7 10 4 7 -4 7 -12 0 -25 -12 -22 7 -40 21 -19 5 8 3 17 -4 21 -9 6 -8 8 3 8 13 0 13 1 0 10 -10 6 -11 10 -2 10 6 0 12 5 12 10 0 14 -26 12 -42 -3 -15 -15 -61 -20 -53 -6 4 5 10 9 15 9 5 0 26 11 46 25 20 14 34 25 31 25 -12 0 -62 -24 -79 -38 -9 -8 -22 -12 -27 -11 -16 6 59 62 83 64 12 1 19 4 16 6 -3 2 6 19 19 37 17 25 26 30 32 21 4 -8 1 -18 -9 -26 -12 -8 -13 -12 -4 -13 7 0 10 -5 7 -10 -4 -6 -11 -8 -16 -5 -5 4 -9 1 -9 -4 0 -6 11 -10 24 -9 14 1 23 5 20 9 -6 10 64 92 87 103 10 5 19 13 19 18 0 5 4 7 8 4 4 -2 9 5 9 16 1 11 10 26 20 34 14 10 15 13 3 13 -8 0 -20 -5 -26 -13z" fill="#724c96"/>
<path d="M2386 2136 c4 -11 -4 -12 -35 -6 -22 4 -38 3 -35 -1 3 -5 18 -9 34 -9 23 0 33 -7 45 -31 20 -37 30 -33 15 5 -5 15 -8 31 -5 36 3 4 -2 10 -10 13 -9 4 -12 1 -9 -7z" fill="#724c96"/>
<path d="M1120 2124 c0 -24 -20 -55 -31 -48 -7 4 -6 10 1 19 7 9 6 16 -4 24 -12 10 -14 8 -9 -11 4 -22 4 -22 -11 -4 -13 17 -16 17 -16 4 0 -9 -3 -25 -7 -35 -6 -16 -5 -17 11 -3 16 13 20 12 31 -3 14 -20 31 -22 32 -4 1 6 6 27 11 45 7 19 7 32 1 32 -5 0 -9 -7 -9 -16z" fill="#724c96"/>
<path d="M2515 2131 c3 -5 -1 -11 -7 -14 -7 -2 2 -6 20 -9 37 -5 39 10 3 23 -13 5 -20 5 -16 0z" fill="#724c96"/>
<path d="M326 2105 c-10 -27 -7 -93 5 -101 18 -11 29 18 13 33 -16 17 -19 27 -4 18 6 -4 9 6 7 24 -4 38 -12 47 -21 26z" fill="#724c96"/>
<path d="M1294 2066 c-28 -24 -28 -25 -6 -23 13 1 28 10 34 20 15 29 3 30 -28 3z" fill="#724c96"/>
<path d="M2525 2073 c-16 -9 -33 -22 -38 -29 -4 -7 -14 -11 -22 -8 -8 4 -15 1 -15 -5 0 -6 -9 -11 -19 -11 -22 0 -53 38 -44 53 3 6 1 7 -5 3 -7 -4 -12 -13 -12 -20 0 -18 68 -78 80 -71 12 8 13 -8 1 -20 -11 -13 -2 -85 11 -85 6 0 7 16 3 40 -5 28 -3 46 7 57 7 9 13 19 13 22 0 3 4 5 9 3 5 -2 13 3 18 10 7 10 11 10 21 -4 9 -11 18 -14 28 -7 11 7 10 9 -6 10 -20 0 -20 0 0 9 14 5 24 3 32 -7 7 -9 13 -10 17 -4 5 7 15 7 32 1 17 -7 23 -7 19 0 -3 6 1 10 9 10 8 0 18 5 22 11 5 8 -7 10 -39 6 -27 -3 -49 -2 -53 4 -3 6 -13 8 -21 5 -8 -3 -11 -1 -8 4 3 6 17 10 31 10 13 0 24 4 24 9 0 5 -15 5 -35 1 -33 -7 -50 2 -22 13 6 3 8 6 2 6 -5 0 -23 -7 -40 -16z" fill="#724c96"/>
<path d="M253 2033 c3 -38 16 -71 18 -47 0 5 2 19 3 30 1 12 -4 30 -11 40 -13 17 -14 15 -10 -23z" fill="#724c96"/>
<path d="M2258 2058 c-10 -28 -9 -106 1 -113 7 -4 11 15 11 59 0 64 -3 79 -12 54z" fill="#724c96"/>
<path d="M2280 2050 c0 -15 4 -20 14 -17 9 4 17 -1 19 -11 4 -14 5 -15 6 -1 0 9 -8 24 -19 34 -19 18 -20 17 -20 -5z" fill="#724c96"/>
<path d="M366 2024 c-5 -13 5 -29 39 -61 39 -38 43 -46 33 -63 -7 -10 -22 -24 -35 -31 -13 -7 -21 -14 -18 -17 2 -3 11 1 20 8 8 7 26 10 40 7 24 -4 25 -3 10 13 -9 10 -12 21 -7 24 5 3 15 -1 22 -9 7 -8 20 -15 29 -15 10 0 12 3 5 8 -6 4 -16 17 -23 30 -6 12 -16 22 -22 22 -15 0 -55 41 -71 74 -13 25 -16 26 -22 10z" fill="#724c96"/>
<path d="M790 2007 c0 -3 23 -13 50 -22 53 -17 87 -59 77 -94 -2 -11 2 -17 13 -17 20 0 16 42 -7 68 -8 9 -12 21 -9 27 8 12 -12 26 -39 27 -11 0 -35 4 -52 8 -18 4 -33 5 -33 3z" fill="#724c96"/>
<path d="M2679 1953 c3 -27 7 -39 9 -28 2 11 8 22 12 25 5 3 1 15 -8 28 -17 22 -17 21 -13 -25z" fill="#724c96"/>
<path d="M320 1976 c0 -7 9 -16 20 -19 11 -3 20 -10 20 -16 0 -6 -8 -8 -17 -4 -11 4 -6 -5 12 -23 17 -16 33 -28 37 -27 12 6 -5 46 -33 74 -32 32 -39 35 -39 15z" fill="#724c96"/>
<path d="M2730 1964 c0 -10 6 -14 15 -10 8 3 15 1 15 -3 0 -5 7 -12 15 -15 13 -5 12 -1 -2 19 -21 28 -43 33 -43 9z" fill="#724c96"/>
<path d="M2494 1945 c5 -11 9 -30 9 -42 1 -34 17 -28 17 6 0 16 -8 35 -17 42 -15 12 -16 12 -9 -6z" fill="#724c96"/>
<path d="M2642 1933 c5 -38 5 -38 -28 -17 -13 9 -27 14 -30 11 -3 -3 7 -12 24 -21 21 -11 32 -26 40 -58 6 -24 10 -52 10 -63 -1 -11 0 -56 2 -100 4 -80 4 -80 9 35 4 63 3 120 0 125 -3 6 -7 30 -8 55 0 24 -6 49 -12 55 -8 7 -10 1 -7 -22z" fill="#724c96"/>
<path d="M1 1922 c0 -18 6 -47 16 -65 15 -30 15 -31 0 -18 -12 9 -17 10 -17 2 0 -20 19 -50 51 -80 19 -18 27 -34 23 -45 -3 -9 -2 -16 4 -16 12 0 42 72 35 83 -3 5 -11 0 -18 -9 -11 -16 -14 -16 -39 9 -15 15 -25 31 -21 36 3 5 0 22 -6 38 -7 15 -15 44 -19 63 l-8 35 -1 -33z" fill="#724c96"/>
<path d="M1173 1942 c-18 -11 -26 -58 -13 -79 10 -16 10 -16 5 4 -3 12 1 36 10 53 17 32 16 34 -2 22z" fill="#724c96"/>
<path d="M2101 1937 c-1 -4 6 -24 14 -44 19 -44 20 -116 3 -111 -7 3 -18 22 -23 42 -9 33 -13 36 -24 23 -7 -9 -20 -13 -28 -10 -11 4 -9 -1 5 -15 12 -12 25 -22 28 -22 3 0 27 -24 54 -52 41 -44 49 -58 45 -83 -2 -16 -4 -33 -4 -37 -1 -5 -11 -8 -23 -7 l-23 0 23 9 c27 12 29 24 2 17 -17 -4 -20 0 -20 26 0 18 -5 39 -11 47 -8 11 -9 6 -6 -22 7 -49 0 -53 -35 -16 -22 24 -26 33 -16 39 9 6 9 9 1 9 -25 0 -24 -22 3 -47 16 -15 24 -28 18 -30 -17 -6 -84 37 -84 53 0 8 -5 14 -12 14 -6 0 -8 -3 -5 -7 4 -3 2 -12 -5 -20 -6 -8 -7 -13 -2 -12 21 4 28 -2 14 -12 -11 -8 -8 -9 14 -4 27 6 28 5 15 -11 -9 -11 -9 -15 -1 -10 7 4 12 1 12 -9 0 -10 -7 -15 -17 -13 -9 2 -29 -9 -45 -24 -23 -22 -27 -32 -22 -54 l7 -28 -31 23 c-33 23 -49 60 -36 83 4 7 4 10 -1 6 -4 -4 -15 -2 -23 5 -13 11 -14 9 -1 -10 15 -25 5 -43 -13 -25 -7 7 -26 12 -42 12 -21 0 -27 -3 -17 -9 7 -5 22 -6 32 -4 11 3 21 -1 25 -10 3 -9 11 -14 19 -11 7 3 15 -4 18 -15 3 -12 1 -21 -4 -21 -5 0 -9 -5 -9 -11 0 -8 4 -8 14 0 17 14 32 -2 20 -21 -4 -6 -3 -8 3 -5 6 4 10 -6 11 -23 1 -35 -8 -38 -33 -10 -13 14 -22 17 -29 10 -15 -15 43 -61 71 -56 12 1 20 -1 17 -5 -3 -5 -1 -9 3 -9 9 0 43 -73 43 -92 0 -6 3 -8 6 -5 11 11 13 78 3 71 -6 -3 -10 0 -8 7 3 27 -1 40 -11 34 -5 -3 -11 -3 -11 2 -1 4 -3 17 -4 28 -2 11 -4 25 -5 30 -5 22 0 46 9 40 5 -3 12 -1 16 5 3 5 0 10 -8 10 -21 0 -29 26 -12 40 10 8 14 7 18 -7 4 -15 5 -14 6 3 1 24 52 51 72 38 8 -4 10 -3 5 4 -4 7 -1 12 7 12 8 0 18 -7 21 -16 4 -9 9 -14 13 -11 3 4 15 1 27 -5 11 -7 24 -11 29 -10 4 1 7 -5 7 -13 0 -9 6 -12 15 -9 8 4 15 1 15 -6 0 -7 8 -10 20 -7 10 3 25 -1 31 -9 10 -12 14 -12 25 3 13 17 16 16 42 -12 26 -27 52 -42 52 -30 0 20 -28 56 -50 65 -16 6 -31 21 -35 33 -4 13 -8 17 -11 10 -3 -7 -12 -9 -21 -6 -12 5 -14 3 -8 -8 8 -12 6 -12 -8 0 -9 7 -15 17 -12 21 3 5 1 11 -5 15 -12 7 -14 68 -2 79 4 4 7 11 7 14 1 4 5 18 9 31 5 15 4 27 -4 35 -10 8 -11 8 -6 -1 4 -7 -1 -29 -10 -48 l-17 -36 -29 28 c-25 24 -29 35 -27 73 2 29 -5 61 -19 90 -11 25 -21 41 -21 37z" fill="#724c96"/>
<path d="M620 1924 c0 -6 7 -17 15 -24 10 -8 12 -17 6 -29 -5 -9 -10 -20 -11 -26 -1 -5 -6 -9 -12 -7 -5 1 -7 -2 -4 -6 7 -11 -28 -45 -37 -36 -3 3 -3 -3 0 -15 7 -26 -37 -67 -90 -83 -21 -6 -41 -18 -44 -25 -3 -7 -11 -13 -19 -13 -8 0 -14 -8 -13 -17 0 -11 3 -13 6 -5 2 6 15 12 28 12 13 0 27 4 30 10 3 5 16 15 27 21 18 10 20 9 14 -7 -4 -10 11 -1 33 21 22 22 43 51 46 64 3 13 22 42 41 64 19 23 34 43 34 46 0 12 -49 66 -50 55z" fill="#724c96"/>
<path d="M2284 1915 c-4 -10 -13 -13 -25 -10 -11 4 -19 4 -19 1 0 -5 27 -19 85 -44 6 -3 0 6 -11 19 -12 13 -19 30 -17 37 3 6 2 12 -1 12 -4 0 -9 -7 -12 -15z" fill="#724c96"/>
<path d="M2800 1926 c0 -3 9 -15 20 -26 11 -11 20 -17 20 -14 0 4 7 1 15 -6 13 -11 14 -10 10 2 -6 14 -65 54 -65 44z" fill="#724c96"/>
<path d="M690 1868 c0 -57 16 -72 23 -20 3 23 0 42 -9 52 -12 12 -14 8 -14 -32z" fill="#724c96"/>
<path d="M1938 1899 c-9 -6 -5 -9 12 -9 20 0 22 -2 10 -10 -8 -5 -12 -10 -7 -10 4 0 16 5 27 12 16 10 23 9 45 -12 14 -13 25 -19 25 -14 0 25 -87 58 -112 43z" fill="#724c96"/>
<path d="M2711 1758 c0 -89 2 -119 10 -111 7 7 10 35 7 72 -2 33 -1 58 3 55 4 -2 6 8 5 23 -2 16 -4 40 -5 56 0 15 -5 27 -10 27 -4 0 -9 -55 -10 -122z" fill="#724c96"/>
<path d="M2750 1818 c7 -48 16 -68 31 -68 6 0 5 8 -1 21 -7 11 -14 33 -16 47 -9 46 -21 45 -14 0z" fill="#724c96"/>
<path d="M654 1823 c-3 -10 -10 -26 -15 -35 -5 -10 -9 -36 -9 -58 0 -30 3 -38 14 -34 9 3 12 12 9 21 -4 11 -2 14 5 9 9 -5 12 10 12 53 0 61 -6 77 -16 44z" fill="#724c96"/>
<path d="M412 1808 c2 -15 9 -22 18 -19 8 2 23 3 33 3 25 -1 21 5 -13 23 -38 20 -42 19 -38 -7z" fill="#724c96"/>
<path d="M2376 1811 c-11 -12 -15 -21 -10 -21 10 0 -17 -20 -28 -20 -3 0 -9 8 -12 18 -4 14 -4 13 -3 -3 2 -15 10 -19 40 -20 58 -3 70 -23 18 -31 -27 -4 -38 -10 -30 -15 7 -4 21 -3 31 2 25 13 55 3 63 -22 4 -10 14 -19 24 -19 29 0 41 -23 36 -69 -3 -30 0 -41 8 -38 7 2 11 17 9 33 -2 17 0 24 5 17 6 -8 13 -8 27 3 20 14 16 18 -16 15 -23 -3 -23 15 -1 23 14 6 14 9 -6 27 -12 12 -20 28 -17 36 3 8 6 22 6 31 0 15 2 15 10 2 7 -11 10 -6 10 20 0 35 0 35 -13 10 -8 -14 -19 -24 -25 -23 -6 2 -10 -9 -9 -24 1 -17 -3 -26 -15 -28 -10 -2 -17 0 -17 3 3 20 -16 52 -30 53 -12 0 -10 3 6 11 12 6 24 17 28 26 4 12 2 12 -8 4 -8 -7 -18 -8 -22 -4 -5 4 -5 1 -1 -5 4 -8 1 -13 -9 -13 -8 0 -19 9 -23 21 l-8 20 -18 -20z" fill="#724c96"/>
<path d="M2553 1789 c1 -26 5 -45 10 -42 10 6 9 55 -3 73 -7 11 -9 1 -7 -31z" fill="#724c96"/>
<path d="M2875 1822 c-6 -4 -7 -24 -4 -47 l6 -40 2 38 c0 20 6 37 11 37 6 0 10 5 10 10 0 12 -11 13 -25 2z" fill="#724c96"/>
<path d="M2600 1796 c0 -14 -4 -27 -8 -30 -4 -2 -9 -22 -10 -42 -3 -40 9 -41 13 -2 1 13 3 27 4 32 0 4 8 6 16 2 9 -3 15 0 15 9 0 8 -4 15 -10 15 -5 0 -7 6 -4 14 3 8 1 17 -5 21 -7 4 -11 -4 -11 -19z" fill="#724c96"/>
<path d="M805 1794 c12 -29 11 -59 -2 -59 -7 0 -18 -6 -25 -14 -11 -12 -11 -13 1 -6 11 6 13 4 8 -8 -3 -9 -2 -19 3 -22 6 -4 10 3 10 14 0 11 7 24 16 29 12 7 15 17 9 40 -3 18 -11 35 -17 39 -8 4 -9 0 -3 -13z" fill="#724c96"/>
<path d="M1178 1786 c-5 -26 7 -56 23 -56 6 0 5 8 -2 21 -9 18 -8 20 8 15 10 -3 24 -2 31 3 10 6 10 10 -3 21 -13 11 -15 10 -9 -4 8 -22 -5 -20 -26 4 -18 20 -18 20 -22 -4z" fill="#724c96"/>
<path d="M965 1770 c-12 -23 -12 -28 -2 -24 8 3 20 -2 27 -11 11 -13 10 -14 -5 -9 -13 5 -16 4 -11 -4 4 -7 1 -12 -8 -12 -9 0 -16 -4 -16 -10 0 -6 9 -6 26 1 45 16 46 20 22 46 -16 18 -19 27 -10 30 14 5 16 23 2 23 -5 0 -16 -13 -25 -30z" fill="#724c96"/>
<path d="M2825 1780 c2 -14 5 -31 5 -38 0 -7 4 -11 9 -7 5 3 12 -7 14 -22 3 -24 4 -23 5 7 2 30 -16 82 -19 55 0 -5 -5 -1 -10 10 -8 17 -9 17 -4 -5z" fill="#724c96"/>
<path d="M1069 1771 c-18 -20 -14 -42 7 -34 8 3 14 0 14 -7 0 -10 3 -10 14 -1 11 9 15 9 19 -1 3 -7 6 -8 6 -2 1 5 -6 19 -15 30 -8 10 -13 13 -9 7 3 -7 1 -13 -4 -13 -14 0 -14 13 1 28 9 9 9 12 -2 11 -8 0 -22 -8 -31 -18z" fill="#724c96"/>
<path d="M2966 1742 c-8 -26 2 -48 15 -35 6 6 6 19 1 34 l-9 24 -7 -23z" fill="#724c96"/>
<path d="M223 1735 c-17 -19 -16 -25 2 -25 8 0 15 5 15 11 0 5 5 7 10 4 6 -3 10 1 10 9 0 20 -21 20 -37 1z" fill="#724c96"/>
<path d="M1230 1703 c0 -56 6 -54 14 5 3 24 1 42 -4 42 -6 0 -10 -21 -10 -47z" fill="#724c96"/>
<path d="M1041 1730 c-2 -22 -46 -50 -81 -53 -16 -1 -30 -5 -30 -9 0 -5 -9 -8 -19 -8 -11 0 -23 -4 -26 -10 -4 -6 5 -10 19 -10 14 0 26 4 26 8 0 12 52 13 66 1 11 -9 14 -7 14 10 0 12 6 21 16 21 8 0 12 -4 9 -10 -15 -25 6 -7 26 23 14 19 17 27 7 19 -14 -11 -17 -10 -21 10 -2 13 -5 16 -6 8z" fill="#724c96"/>
<path d="M1151 1677 c1 -34 4 -51 6 -37 2 14 8 39 13 57 6 24 5 33 -6 37 -11 4 -14 -7 -13 -57z" fill="#724c96"/>
<path d="M1910 1709 c-18 -11 -30 -23 -26 -26 3 -3 1 -14 -5 -24 -17 -33 -2 -20 20 16 14 24 27 35 43 34 22 0 22 -1 3 -10 -19 -8 -19 -9 -1 -6 11 1 21 7 23 13 7 21 -24 22 -57 3z" fill="#724c96"/>
<path d="M100 1715 c0 -16 22 -45 31 -40 15 10 11 23 -11 35 -11 6 -20 8 -20 5z" fill="#724c96"/>
<path d="M1284 1707 c8 -25 -4 -44 -15 -26 -6 10 -9 10 -9 2 0 -6 4 -14 10 -18 5 -3 7 -12 3 -20 -7 -19 2 -19 32 1 13 9 28 13 34 10 5 -3 7 2 4 13 -3 10 0 22 6 25 13 9 15 26 2 26 -5 0 -12 -11 -15 -25 -3 -13 -15 -29 -25 -35 -16 -8 -18 -7 -14 9 3 11 0 28 -7 38 -11 17 -11 17 -6 0z" fill="#724c96"/>
<path d="M1114 1689 c-10 -17 -13 -119 -3 -119 5 0 8 10 8 23 -1 12 2 41 6 65 7 41 3 53 -11 31z" fill="#724c96"/>
<path d="M2960 1668 c0 -9 6 -23 14 -31 8 -7 16 -25 19 -38 4 -23 4 -23 6 -2 0 13 -8 37 -19 55 -12 21 -20 27 -20 16z" fill="#724c96"/>
<path d="M160 1659 c0 -22 36 -66 46 -56 4 4 1 13 -8 20 -9 6 -20 21 -26 32 -9 16 -11 17 -12 4z" fill="#724c96"/>
<path d="M576 1651 c-8 -13 4 -42 15 -35 12 7 12 44 0 44 -6 0 -12 -4 -15 -9z" fill="#724c96"/>
<path d="M526 1643 c-3 -4 -6 -18 -6 -32 1 -25 1 -25 15 -7 13 17 15 18 15 3 0 -9 7 -17 15 -17 12 0 13 5 3 24 -11 26 -31 39 -42 29z" fill="#724c96"/>
<path d="M1035 1642 c-3 -3 -5 -19 -4 -36 1 -29 1 -30 8 -6 8 27 16 19 32 -28 6 -21 8 -15 4 23 -2 28 -4 50 -4 51 -3 3 -32 0 -36 -4z" fill="#724c96"/>
<path d="M927 1634 c-4 -4 -17 -7 -29 -8 -13 -1 -22 -7 -21 -13 1 -6 -4 -17 -12 -23 -8 -7 -15 -18 -15 -26 0 -20 40 -12 52 11 9 16 8 18 -3 8 -15 -15 -29 -17 -29 -5 0 10 54 42 88 52 l27 8 -26 1 c-14 1 -29 -2 -32 -5z" fill="#724c96"/>
<path d="M992 1568 c1 -35 3 -55 5 -45 3 9 8 15 11 13 13 -8 9 69 -4 82 -11 11 -13 2 -12 -50z" fill="#724c96"/>
<path d="M2713 1582 c0 -30 4 -48 8 -40 4 7 3 31 -1 53 -8 40 -8 39 -7 -13z" fill="#724c96"/>
<path d="M950 1581 c0 -17 5 -33 10 -36 6 -4 10 8 10 29 0 20 -4 36 -10 36 -5 0 -10 -13 -10 -29z" fill="#724c96"/>
<path d="M1247 1596 c-4 -9 -11 -15 -16 -12 -5 3 -12 -1 -15 -10 -8 -22 -8 -22 17 -35 18 -9 20 -9 10 2 -10 10 -10 16 3 30 9 10 14 24 12 30 -3 9 -7 7 -11 -5z" fill="#724c96"/>
<path d="M290 1590 c0 -6 -5 -8 -10 -5 -6 4 -17 1 -25 -5 -11 -9 -15 -9 -15 -1 0 6 -4 11 -10 11 -5 0 -7 -7 -3 -16 3 -9 12 -13 22 -8 9 4 26 6 39 5 23 -1 30 13 12 24 -5 3 -10 1 -10 -5z" fill="#724c96"/>
<path d="M40 1552 c0 -10 3 -22 8 -26 4 -4 7 -12 7 -17 0 -13 19 -13 23 0 2 6 -1 11 -7 11 -6 0 -11 11 -11 25 0 14 -4 25 -10 25 -5 0 -10 -8 -10 -18z" fill="#724c96"/>
<path d="M466 1545 c4 -8 10 -13 14 -10 4 3 10 -4 13 -15 3 -11 11 -20 19 -20 10 0 9 3 -2 10 -10 6 -11 10 -2 10 6 0 12 5 12 11 0 5 -5 7 -10 4 -6 -3 -13 1 -16 9 -3 9 -12 16 -20 16 -8 0 -11 -6 -8 -15z" fill="#724c96"/>
<path d="M2162 1541 c-11 -7 -11 -9 2 -14 9 -4 25 -21 37 -39 12 -18 18 -25 15 -15 -4 13 -2 17 6 14 7 -2 12 -9 11 -15 -2 -6 4 -9 12 -6 11 5 8 12 -13 34 -17 18 -29 24 -34 16 -4 -6 -10 -2 -15 11 -6 15 -12 20 -21 14z" fill="#724c96"/>
<path d="M2464 1538 c-3 -5 -12 -7 -20 -4 -8 3 -11 0 -8 -8 3 -7 -2 -16 -10 -19 -9 -4 -16 -17 -16 -29 l0 -22 16 22 c8 12 20 19 26 16 7 -4 8 -2 4 4 -3 6 3 16 14 22 21 11 27 1 9 -17 -8 -8 -8 -13 0 -18 7 -3 10 -1 9 6 -2 7 7 17 19 24 21 11 21 11 -8 22 -18 7 -31 8 -35 1z" fill="#724c96"/>
<path d="M375 1530 c-3 -5 0 -10 8 -10 8 0 27 -10 42 -22 15 -12 37 -22 48 -23 12 -1 23 -7 25 -13 2 -7 -3 -10 -12 -6 -10 4 -16 1 -16 -9 0 -8 -6 -17 -12 -20 -10 -3 -10 -8 1 -21 16 -19 6 -35 -11 -18 -14 14 -28 16 -28 4 0 -5 10 -13 23 -19 25 -12 43 1 49 33 2 11 9 25 16 32 20 22 -11 56 -70 78 -10 3 -18 10 -18 15 0 12 -37 11 -45 -1z" fill="#724c96"/>
<path d="M906 1468 c1 -40 2 -74 3 -76 1 -2 8 3 16 12 12 11 13 21 5 41 -6 15 -7 32 -3 38 14 22 10 57 -7 57 -12 0 -15 -13 -14 -72z" fill="#724c96"/>
<path d="M2909 1518 c5 -15 6 -38 2 -55 l-8 -28 -16 35 c-9 20 -16 28 -16 18 -1 -22 -9 -23 -33 -1 -17 15 -18 15 -13 0 4 -9 15 -19 26 -22 10 -4 37 -24 60 -46 29 -28 39 -44 34 -58 -3 -12 0 -21 10 -25 9 -3 14 -9 11 -14 -2 -4 4 -8 15 -8 25 0 24 18 -1 36 -11 8 -20 18 -20 23 0 5 6 4 13 -2 15 -12 27 -5 27 16 0 8 -4 11 -10 8 -5 -3 -22 5 -36 19 -20 17 -27 35 -29 66 -1 23 -8 47 -14 53 -10 9 -10 6 -2 -15z" fill="#724c96"/>
<path d="M336 1508 c10 -13 19 -24 20 -26 1 -1 9 0 18 4 9 3 13 10 10 15 -3 5 -9 7 -14 4 -4 -3 -10 2 -14 10 -3 8 -13 15 -22 15 -15 0 -15 -2 2 -22z" fill="#724c96"/>
<path d="M80 1480 c0 -5 4 -10 10 -10 5 0 7 -7 3 -16 -3 -8 -11 -13 -17 -11 -7 3 -13 -4 -13 -14 -2 -25 8 -24 41 2 23 18 32 20 52 10 13 -6 24 -15 24 -21 0 -5 5 -10 12 -10 18 0 -24 41 -64 61 -43 22 -48 23 -48 9z" fill="#724c96"/>
<path d="M1298 1483 c22 -9 13 -19 -20 -21 -18 -2 -40 -10 -48 -18 -13 -13 -13 -14 5 -8 16 6 15 3 -6 -18 -32 -30 -56 -95 -41 -110 13 -13 27 12 36 63 7 38 27 62 62 73 12 4 32 15 44 26 l23 20 -34 -1 c-19 0 -28 -3 -21 -6z" fill="#724c96"/>
<path d="M366 1461 c-3 -5 5 -12 19 -15 14 -4 25 -11 25 -16 0 -6 5 -10 10 -10 6 0 3 11 -6 25 -16 25 -38 32 -48 16z" fill="#724c96"/>
<path d="M520 1434 c-12 -13 -12 -18 -2 -21 6 -3 12 -15 12 -28 0 -12 6 -28 14 -34 11 -9 15 -6 20 15 4 14 5 29 1 32 -3 3 -5 -1 -6 -9 -1 -8 -6 3 -13 24 -11 36 -13 38 -26 21z" fill="#724c96"/>
<path d="M1757 1439 c-9 -6 -17 -15 -17 -21 0 -7 5 -6 15 2 19 15 46 5 69 -26 18 -25 18 -26 -3 -48 l-22 -23 31 -6 c33 -7 35 -13 20 -51 -8 -22 -13 -24 -32 -17 -13 5 -22 14 -20 21 1 6 -2 9 -7 6 -5 -4 -16 3 -24 14 -12 18 -15 18 -20 5 -4 -9 -1 -15 7 -15 8 0 28 -16 45 -35 l31 -36 17 29 c18 28 22 32 43 32 15 0 12 26 -5 40 -8 7 -12 17 -8 23 3 5 2 7 -3 4 -6 -3 -16 -2 -24 4 -11 6 -11 9 -2 9 19 0 -12 54 -46 78 -20 15 -32 18 -45 11z" fill="#724c96"/>
<path d="M585 1390 c1 -19 3 -41 4 -48 1 -10 6 -10 21 -2 21 11 27 30 9 30 -5 0 -7 -6 -3 -12 4 -8 3 -10 -2 -5 -5 5 -14 23 -21 40 l-12 32 4 -35z" fill="#724c96"/>
<path d="M80 1386 c0 -31 10 -38 31 -22 15 10 14 13 -7 29 -24 18 -24 18 -24 -7z" fill="#724c96"/>
<path d="M505 1381 c5 -17 3 -20 -11 -14 -14 5 -15 3 -4 -17 8 -15 8 -20 1 -16 -6 4 -11 3 -11 -3 0 -5 14 -12 30 -16 17 -4 30 -11 30 -16 0 -6 -4 -7 -10 -4 -5 3 -10 2 -10 -3 0 -11 30 -25 38 -17 3 3 1 5 -5 5 -6 0 -9 8 -6 18 2 10 -4 26 -15 35 -11 11 -18 26 -15 36 3 11 -1 22 -7 26 -9 5 -10 1 -5 -14z" fill="#724c96"/>
<path d="M930 1393 c0 -10 45 -63 54 -63 4 0 1 10 -5 23 -7 12 -12 24 -11 27 1 3 -1 5 -5 5 -5 0 -14 4 -20 8 -7 5 -13 5 -13 0z" fill="#724c96"/>
<path d="M1422 1334 c2 -14 10 -30 20 -35 10 -5 18 -16 18 -25 0 -8 6 -17 14 -20 8 -3 12 -13 9 -23 -2 -9 4 -26 14 -37 10 -11 14 -14 9 -7 -4 7 -6 30 -4 52 3 31 1 37 -9 29 -10 -8 -13 -5 -13 11 0 11 5 21 10 21 6 0 10 5 10 11 0 8 -5 8 -15 -1 -21 -18 -45 -5 -45 25 0 14 -4 25 -10 25 -5 0 -9 -12 -8 -26z" fill="#724c96"/>
<path d="M58 1335 c-5 -6 19 -65 26 -65 2 0 2 12 0 26 -3 28 -17 48 -26 39z" fill="#724c96"/>
<path d="M780 1331 c0 -6 -11 -11 -25 -11 -14 0 -25 -4 -25 -10 0 -5 5 -10 11 -10 6 0 8 -7 5 -16 -4 -10 -2 -14 6 -11 7 2 12 10 11 16 -3 13 23 15 31 2 4 -5 0 -12 -6 -14 -9 -4 -8 -6 2 -7 8 0 2 -7 -15 -14 l-30 -13 27 -5 c15 -3 25 -1 22 3 -3 5 -1 9 5 9 5 0 13 -5 16 -10 4 -6 11 -7 17 -4 7 5 8 2 3 -6 -6 -10 -4 -12 8 -7 10 4 24 10 32 13 8 3 15 1 15 -5 0 -6 -4 -11 -10 -11 -5 0 -14 -8 -19 -17 -7 -15 -5 -18 14 -18 13 0 21 3 18 8 -8 13 8 7 30 -10 15 -13 21 -27 20 -48 -3 -29 -2 -29 7 -6 10 23 11 24 26 5 13 -15 12 -13 -1 11 -9 17 -26 38 -37 48 -17 15 -18 17 -3 17 9 0 23 -7 32 -15 8 -8 19 -13 24 -10 5 4 6 0 3 -8 -3 -8 -1 -18 5 -22 6 -3 11 1 11 11 0 13 3 14 13 5 8 -6 17 -8 20 -4 7 6 10 -18 9 -62 -1 -17 0 -17 4 -2 3 9 9 17 14 17 5 0 7 6 4 14 -4 10 2 12 20 9 25 -5 43 -34 37 -62 -1 -7 2 -10 8 -7 5 4 14 -2 20 -11 6 -10 11 -13 11 -6 0 6 -4 15 -10 18 -14 9 -13 35 2 35 6 0 23 -10 36 -22 l25 -23 -18 28 c-9 15 -25 27 -35 27 -21 0 -43 24 -32 35 4 5 1 5 -7 0 -9 -5 -18 -2 -25 7 -11 15 -51 38 -98 57 -33 12 -37 31 -7 31 11 0 18 4 15 8 -6 10 -47 8 -90 -3 -18 -5 -31 -4 -35 4 -6 9 -15 9 -35 1 -35 -13 -46 -13 -46 1 0 6 6 9 14 6 8 -3 20 0 26 8 9 11 7 13 -13 10 -26 -5 -53 17 -43 34 4 5 2 12 -4 16 -5 3 -10 1 -10 -4z" fill="#724c96"/>
<path d="M405 1304 c13 -20 14 -28 5 -34 -7 -4 -9 -13 -6 -19 12 -19 26 -12 26 14 0 14 5 25 10 25 6 0 10 6 10 14 0 14 -21 26 -47 26 -13 0 -13 -3 2 -26z" fill="#724c96"/>
<path d="M1214 1309 c-3 -6 -1 -15 6 -19 10 -6 9 -9 -1 -13 -10 -4 -7 -11 11 -26 22 -17 23 -23 13 -40 -15 -24 -4 -35 15 -15 7 8 9 14 5 14 -4 0 -1 5 7 11 13 8 12 12 -7 26 -13 8 -23 20 -23 25 0 6 7 5 15 -2 29 -24 24 -4 -5 23 -19 18 -31 24 -36 16z" fill="#724c96"/>
<path d="M581 1286 c16 -17 26 -21 31 -13 9 15 -5 30 -33 34 -21 3 -21 3 2 -21z" fill="#724c96"/>
<path d="M103 1276 c4 -10 7 -24 7 -32 0 -8 5 -13 12 -11 6 1 21 -15 32 -35 15 -27 27 -37 42 -36 15 2 20 7 16 17 -4 11 -7 12 -10 2 -7 -22 -31 22 -25 47 4 19 1 22 -26 22 -20 0 -31 5 -31 14 0 8 -5 18 -12 22 -8 5 -9 2 -5 -10z" fill="#724c96"/>
<path d="M2730 1269 c11 -20 12 -20 31 -3 25 23 24 24 -11 24 -28 0 -30 -2 -20 -21z" fill="#724c96"/>
<path d="M2158 1259 c-19 -10 -24 -34 -10 -43 4 -3 13 8 19 25 6 16 11 29 10 29 -1 0 -10 -5 -19 -11z" fill="#724c96"/>
<path d="M2836 1249 c2 -4 -10 -12 -26 -18 -37 -12 -38 -17 -4 -16 14 1 35 11 46 23 l21 21 -21 -2 c-11 0 -19 -4 -16 -8z" fill="#724c96"/>
<path d="M2980 1245 c0 -8 -5 -15 -11 -15 -5 0 -8 -4 -5 -9 4 -5 -8 -13 -26 -17 -18 -3 -39 -15 -45 -24 -12 -17 -63 -33 -108 -35 -31 -1 -112 44 -118 66 -3 10 -10 19 -16 19 -5 0 -3 -13 7 -30 9 -16 23 -30 30 -30 6 0 12 -4 12 -10 0 -5 12 -13 26 -16 17 -4 23 -11 19 -22 -5 -13 -3 -13 11 -1 9 7 30 14 48 15 40 1 134 45 181 84 17 14 20 40 5 40 -5 0 -10 -7 -10 -15z" fill="#724c96"/>
<path d="M55 1230 c8 -9 15 -21 15 -26 1 -13 32 -47 55 -60 12 -6 21 -24 23 -43 2 -17 7 -31 12 -31 5 0 11 -21 13 -47 l3 -48 2 52 c1 28 -3 55 -8 58 -11 7 -4 25 8 25 4 0 20 -23 35 -50 16 -28 31 -50 34 -50 5 0 0 27 -13 67 -5 17 -4 17 10 -1 9 -11 16 -16 16 -12 0 4 13 -2 29 -13 15 -11 31 -18 35 -14 3 3 6 -1 6 -11 0 -18 67 -93 75 -84 3 2 -9 17 -25 32 -17 15 -33 40 -36 56 -4 18 -11 27 -19 23 -8 -2 -28 10 -46 27 -20 19 -40 29 -51 27 -10 -3 -18 -2 -18 2 0 3 -16 15 -35 25 -19 11 -35 22 -35 26 0 4 -9 10 -19 13 -21 5 -57 54 -47 64 3 4 13 -2 22 -13 14 -18 15 -18 4 3 -7 16 -18 22 -35 21 -22 -2 -23 -4 -10 -18z" fill="#724c96"/>
<path d="M2850 1210 c-19 -27 -19 -29 -3 -23 10 4 28 17 40 30 21 21 21 23 3 23 -10 0 -28 -13 -40 -30z" fill="#724c96"/>
<path d="M1312 1198 c23 -32 23 -33 26 -9 4 24 -11 41 -36 41 -9 0 -6 -11 10 -32z" fill="#724c96"/>
<path d="M2155 1196 c-22 -6 -43 -14 -46 -19 -9 -13 -45 -3 -42 11 2 6 -4 9 -12 6 -12 -5 -12 -9 2 -30 15 -23 14 -24 -8 -25 -13 -1 -28 -2 -34 -4 -5 -1 -16 -3 -22 -3 -7 -1 -13 -6 -13 -11 0 -10 12 -9 49 3 16 6 26 4 32 -5 7 -11 9 -9 10 6 1 11 1 23 0 27 0 4 13 6 30 4 19 -2 32 1 36 10 3 8 13 14 22 14 18 0 48 17 41 22 -3 2 -23 -1 -45 -6z" fill="#724c96"/>
<path d="M2494 1185 c-16 -13 -16 -15 -2 -13 9 2 24 -6 32 -17 13 -17 17 -18 25 -5 7 10 5 20 -9 32 -23 22 -22 22 -46 3z" fill="#724c96"/>
<path d="M865 1170 c-4 -6 -11 -8 -16 -4 -6 3 -13 -4 -16 -16 -4 -13 -11 -19 -20 -16 -9 4 -13 1 -10 -6 2 -7 11 -12 20 -10 11 2 14 -3 10 -18 -7 -24 -23 -37 -23 -17 0 19 -36 50 -52 44 -8 -3 -1 -9 16 -16 22 -9 27 -16 23 -32 -3 -12 -3 -18 0 -15 4 3 12 1 20 -6 16 -13 73 -19 73 -7 0 4 -10 9 -22 11 -25 4 -31 27 -14 60 17 32 26 58 21 58 -2 0 -7 -5 -10 -10z" fill="#724c96"/>
<path d="M1874 1172 c3 -6 0 -13 -6 -15 -7 -3 -2 -6 11 -6 19 -1 21 -4 12 -15 -9 -10 -9 -20 0 -40 17 -37 -1 -57 -34 -37 -18 11 -20 11 -9 0 13 -14 16 -30 5 -27 -14 3 -43 -14 -38 -22 6 -10 46 0 62 16 7 7 17 14 23 16 6 2 12 19 13 38 1 19 6 40 9 46 4 6 -7 21 -24 34 -17 12 -28 18 -24 12z" fill="#724c96"/>
<path d="M1610 1152 c0 -12 72 -24 83 -13 4 4 2 8 -5 8 -7 0 -28 3 -45 7 -19 5 -33 4 -33 -2z" fill="#724c96"/>
<path d="M1420 1135 c10 -12 10 -15 -1 -15 -8 0 1 -10 20 -22 39 -25 88 -31 88 -11 0 13 -32 26 -53 22 -21 -4 -35 2 -28 12 3 6 0 15 -7 20 -22 14 -33 10 -19 -6z" fill="#724c96"/>
<path d="M2885 1140 c-16 -7 -13 -9 18 -9 20 -1 37 4 37 9 0 12 -27 12 -55 0z" fill="#724c96"/>
<path d="M1365 1110 c21 -16 41 -30 44 -30 3 0 -2 7 -11 14 -10 7 -15 16 -11 20 10 9 -17 26 -41 26 -14 0 -9 -7 19 -30z" fill="#724c96"/>
<path d="M2106 1115 c-3 -8 -11 -14 -17 -13 -6 2 -14 -3 -16 -9 -6 -16 23 -17 32 -2 4 6 13 8 21 5 12 -4 12 -2 4 14 -13 24 -16 25 -24 5z" fill="#724c96"/>
<path d="M2415 1110 c-3 -5 -1 -10 4 -10 16 0 51 -33 51 -47 0 -7 7 -13 16 -13 11 0 15 6 11 20 -3 11 -1 23 4 26 20 12 7 22 -22 17 -16 -2 -36 1 -44 7 -9 7 -15 8 -20 0z" fill="#724c96"/>
<path d="M2856 1108 c3 -4 -3 -8 -14 -8 -10 0 -29 -11 -42 -25 -28 -30 -22 -33 10 -5 13 11 29 20 35 20 7 0 18 6 24 13 8 10 7 14 -4 14 -8 0 -12 -4 -9 -9z" fill="#724c96"/>
<path d="M740 1090 c0 -5 5 -10 10 -10 6 0 9 -4 8 -9 -2 -5 0 -9 5 -10 4 -1 7 1 7 4 0 3 0 12 0 20 0 8 -7 15 -15 15 -8 0 -15 -4 -15 -10z" fill="#724c96"/>
<path d="M1604 1072 c-9 -13 -8 -20 3 -31 19 -18 24 -11 15 22 -6 24 -8 25 -18 9z" fill="#724c96"/>
<path d="M1946 1075 c10 -8 25 -15 32 -15 18 0 15 -18 -5 -23 -16 -4 -16 -5 -1 -6 9 0 20 4 23 10 9 13 -29 49 -51 49 -16 0 -16 -2 2 -15z" fill="#724c96"/>
<path d="M2755 1080 c-3 -6 -8 -25 -10 -43 -4 -30 -3 -31 11 -12 9 13 11 21 4 23 -7 3 -7 8 1 18 7 8 9 17 6 20 -3 3 -8 0 -12 -6z" fill="#724c96"/>
<path d="M2883 1057 c-25 -13 -47 -49 -41 -67 2 -6 17 7 33 29 17 22 39 42 50 44 20 4 20 4 0 4 -11 0 -30 -4 -42 -10z" fill="#724c96"/>
<path d="M1655 1050 c-5 -9 18 -20 41 -20 8 0 14 4 14 9 0 11 -49 21 -55 11z" fill="#724c96"/>
<path d="M192 1006 c0 -37 3 -45 21 -50 33 -9 37 -7 37 9 0 8 -5 15 -11 15 -5 0 -17 16 -25 35 -8 19 -16 35 -18 35 -3 0 -4 -20 -4 -44z" fill="#724c96"/>
<path d="M2434 1035 c1 -9 12 -23 25 -31 l23 -16 -16 31 c-17 32 -36 42 -32 16z" fill="#724c96"/>
<path d="M910 1030 c0 -5 -7 -10 -16 -10 -12 0 -11 -4 7 -19 l22 -18 -44 -14 c-24 -8 -44 -18 -43 -24 0 -5 -11 -16 -26 -23 -15 -7 -27 -19 -27 -27 0 -17 33 -20 42 -5 4 6 11 7 17 4 8 -5 9 -1 5 10 -5 13 -3 17 6 13 8 -3 21 3 30 14 34 39 62 15 50 -41 l-6 -31 44 7 c24 4 49 11 54 16 7 7 3 8 -10 4 -11 -3 -27 -1 -35 4 -12 8 -12 10 5 11 11 0 14 3 8 6 -7 2 -13 11 -13 18 0 8 -9 17 -20 20 -19 6 -24 16 -21 41 1 7 -5 14 -14 17 -8 4 -12 13 -9 22 3 8 3 15 0 15 -3 0 -6 -4 -6 -10z" fill="#724c96"/>
<path d="M2705 1019 c-4 -6 -14 -8 -23 -4 -9 3 -13 3 -9 -1 4 -4 2 -13 -4 -20 -7 -8 -6 -14 2 -20 7 -4 9 -3 6 3 -6 10 15 25 37 27 13 1 20 26 7 26 -5 0 -13 -5 -16 -11z" fill="#724c96"/>
<path d="M285 991 c1 -11 10 -28 21 -36 26 -20 33 -19 27 5 -3 11 -10 20 -16 20 -5 0 -15 7 -22 16 -11 15 -12 15 -10 -5z" fill="#724c96"/>
<path d="M1754 994 c20 -19 20 -25 2 -18 -8 3 -17 1 -21 -5 -8 -14 -45 -14 -45 -1 0 6 -4 10 -10 10 -5 0 -7 -7 -3 -15 4 -13 -5 -16 -58 -16 -86 1 -101 -1 -92 -10 4 -4 19 -9 33 -12 22 -4 22 -4 -5 -6 -17 0 -37 5 -44 12 -11 10 -13 9 -8 -4 4 -11 -1 -15 -16 -13 -33 4 -34 5 -12 15 14 6 6 7 -25 3 -68 -9 -82 -21 -35 -29 22 -4 51 -10 65 -15 36 -12 108 -23 162 -24 25 0 43 -3 38 -6 -5 -3 -2 -13 5 -24 13 -17 41 -14 30 4 -3 5 3 11 12 13 13 3 12 5 -5 6 -13 0 -20 6 -17 11 6 10 -36 15 -98 11 -26 -1 -26 0 -10 17 12 13 22 16 30 10 9 -7 11 -4 8 11 -4 21 13 20 45 -3 13 -10 13 -9 0 8 -14 17 -12 18 32 15 34 -3 44 -1 37 7 -7 8 -2 14 15 18 30 7 28 38 -3 43 -21 3 -21 2 -7 -13z" fill="#724c96"/>
<path d="M1380 981 c0 -13 30 -17 75 -11 l40 5 -34 8 c-45 10 -81 9 -81 -2z" fill="#724c96"/>
<path d="M589 952 c-9 -16 -37 -43 -63 -60 -40 -27 -48 -30 -53 -15 -4 9 1 21 12 29 10 8 14 14 9 14 -16 0 -34 -22 -34 -42 0 -27 -50 -145 -67 -159 -12 -11 -14 -10 -12 2 2 7 -2 28 -10 46 -11 28 -11 34 3 48 9 9 16 22 16 28 0 7 -11 -1 -24 -16 -25 -28 -25 -29 -7 -61 20 -35 13 -66 -14 -66 -8 0 -27 -16 -42 -35 -28 -35 -53 -46 -53 -23 0 6 -3 9 -6 6 -3 -4 1 -17 10 -30 16 -24 16 -52 1 -65 -4 -4 -5 -2 -1 5 9 16 -6 16 -23 0 -9 -8 -11 -8 -8 -2 4 7 -1 20 -11 31 -9 10 -14 14 -10 9 23 -30 -11 -75 -42 -56 -8 5 -18 6 -22 4 -4 -3 -5 3 -1 13 6 16 5 16 -10 4 -9 -7 -23 -11 -31 -8 -11 4 -13 1 -9 -10 4 -11 2 -14 -5 -9 -7 4 -12 3 -12 -2 0 -5 24 -7 53 -5 47 4 50 3 33 -11 -23 -19 -14 -35 18 -29 16 3 23 10 19 19 -6 18 16 46 29 38 7 -4 6 -9 -1 -13 -6 -4 -12 -25 -14 -47 -2 -35 1 -40 32 -56 41 -20 61 -10 53 27 -4 24 -22 36 -22 14 0 -5 -6 -7 -12 -3 -7 4 -5 -2 4 -13 23 -25 23 -32 -1 -26 -49 13 -12 94 48 106 15 3 31 14 35 23 6 14 4 15 -10 4 -13 -12 -17 -11 -25 1 -5 8 -9 22 -9 32 0 23 54 75 86 83 13 3 24 12 24 20 0 21 40 56 56 50 9 -3 12 -1 9 4 -12 19 25 10 46 -11 11 -11 23 -19 25 -16 3 3 -6 13 -19 23 -13 11 -21 26 -19 34 4 12 2 13 -9 4 -31 -24 -49 -24 -49 0 0 25 44 74 88 97 38 20 58 42 66 73 8 33 5 33 -15 -2z" fill="#724c96"/>
<path d="M1025 956 c17 -15 25 -28 20 -36 -5 -8 -4 -11 1 -7 6 3 16 2 24 -3 12 -7 9 -11 -10 -19 l-25 -10 27 0 c26 -1 31 11 14 37 -5 8 -4 18 0 22 10 9 66 1 60 -9 -2 -3 12 -6 32 -5 37 1 52 23 22 31 -13 4 -13 3 0 -6 12 -9 11 -11 -7 -11 -13 0 -23 5 -23 12 0 6 -3 9 -6 6 -3 -4 -18 -2 -34 2 -21 6 -32 4 -41 -6 -7 -8 -15 -11 -18 -7 -7 10 -48 33 -57 33 -4 0 5 -11 21 -24z" fill="#724c96"/>
<path d="M1234 968 c-5 -8 7 -11 41 -9 20 1 20 1 0 -9 -16 -8 -14 -9 10 -4 17 4 41 7 54 8 13 0 26 7 28 13 4 10 -13 12 -62 11 -36 -1 -69 -6 -71 -10z" fill="#724c96"/>
<path d="M2129 964 c-10 -13 -10 -17 1 -24 17 -10 30 -4 30 15 0 22 -16 26 -31 9z" fill="#724c96"/>
<path d="M2263 973 c-23 -9 -14 -20 17 -20 32 0 40 11 14 21 -9 3 -16 6 -17 5 -1 0 -8 -3 -14 -6z" fill="#724c96"/>
<path d="M2520 950 c-23 -18 -23 -20 -5 -20 29 0 52 17 40 29 -7 7 -19 3 -35 -9z" fill="#724c96"/>
<path d="M2766 952 c6 -4 13 -15 17 -24 3 -10 10 -18 15 -18 13 0 48 29 35 30 -6 0 -15 -4 -18 -10 -10 -16 -22 -12 -28 10 -3 11 -11 20 -19 20 -8 0 -9 -3 -2 -8z" fill="#724c96"/>
<path d="M1108 913 c6 -2 10 -9 6 -14 -3 -5 2 -12 10 -15 27 -10 18 -24 -16 -24 -18 -1 -44 -7 -58 -15 -29 -17 -22 -19 15 -5 15 6 24 6 20 1 -3 -6 16 -8 47 -5 29 2 70 6 90 7 20 2 40 6 44 9 3 4 17 3 31 -3 29 -11 43 -12 43 -1 0 9 -150 45 -158 38 -3 -3 2 -6 11 -6 10 0 17 -4 17 -9 0 -13 -28 -22 -35 -10 -4 5 -10 7 -15 4 -4 -3 -10 2 -13 9 -4 9 1 17 11 19 12 3 11 5 -5 6 -12 0 -25 6 -28 11 -3 6 -12 10 -18 9 -9 0 -8 -2 1 -6z" fill="#724c96"/>
<path d="M2005 909 c-4 -5 -4 -22 0 -37 5 -20 8 -23 16 -11 7 11 9 9 9 -8 0 -12 -16 -42 -35 -67 -36 -47 -43 -66 -24 -66 5 0 7 5 4 10 -3 6 -1 10 4 10 6 0 11 7 11 16 0 8 5 12 10 9 6 -3 10 -1 10 6 0 20 31 48 46 42 10 -4 12 0 8 13 -6 15 -2 14 14 -5 12 -13 22 -30 22 -38 0 -8 5 -11 10 -8 6 3 10 1 10 -4 0 -14 32 -51 43 -51 5 0 3 8 -4 18 -11 15 -11 15 1 4 8 -7 15 -20 15 -30 0 -14 9 -17 52 -15 29 1 65 9 80 18 15 9 20 14 11 11 -9 -3 -43 -7 -75 -10 -32 -2 -48 -2 -35 0 12 3 20 9 17 14 -3 5 -11 7 -19 4 -8 -3 -23 20 -44 65 -26 61 -36 73 -69 87 -21 9 -46 20 -55 25 -23 11 -25 11 -33 -2z" fill="#724c96"/>
<path d="M2754 909 c-4 -8 -3 -9 4 -5 17 11 14 -5 -5 -26 -9 -10 -13 -21 -10 -24 10 -11 37 17 37 37 0 22 -16 33 -26 18z" fill="#724c96"/>
<path d="M380 896 c0 -9 -5 -16 -11 -16 -5 0 -7 6 -3 13 4 6 4 9 0 5 -14 -12 -6 -23 19 -23 29 -1 32 7 10 25 -12 10 -15 10 -15 -4z" fill="#724c96"/>
<path d="M2512 898 c-7 -7 -31 -13 -54 -14 -24 -1 -51 -2 -60 -3 -12 -1 -18 -12 -20 -38 -2 -29 -7 -37 -20 -35 -9 1 -19 -6 -23 -18 -3 -11 -11 -21 -16 -21 -5 -1 -13 -2 -18 -3 -5 0 -13 -4 -17 -8 -16 -16 33 -7 70 12 26 15 42 18 50 11 7 -6 17 -6 26 -1 10 7 11 10 3 10 -7 0 -13 5 -13 10 0 19 27 10 54 -17 14 -14 29 -23 33 -20 3 4 1 7 -5 7 -6 0 -9 6 -6 14 3 8 13 13 22 11 9 -1 20 3 25 9 5 8 12 5 21 -6 14 -20 36 -24 36 -8 0 6 -7 10 -15 10 -8 0 -17 11 -21 24 l-6 25 -23 -25 -24 -25 -16 24 c-8 13 -13 31 -9 40 5 14 10 15 27 5 12 -7 30 -11 40 -9 10 1 24 -3 32 -9 8 -6 24 -9 35 -5 14 4 28 1 40 -10 11 -10 20 -12 24 -6 4 5 -3 12 -14 16 -11 3 -20 11 -20 17 0 5 -6 8 -14 5 -7 -3 -25 6 -40 19 -14 14 -26 20 -26 14 0 -7 -6 -8 -19 0 -24 13 -24 13 -39 -2z" fill="#724c96"/>
<path d="M851 835 c-1 -6 -16 -9 -33 -7 -18 2 -51 -4 -73 -12 l-40 -16 45 7 c25 3 62 5 82 4 20 -1 40 4 44 10 4 7 3 9 -4 5 -5 -3 -13 0 -15 6 -3 7 -6 8 -6 3z" fill="#724c96"/>
<path d="M1748 818 c15 -15 25 -19 30 -12 4 6 17 10 30 9 12 -1 21 3 19 9 -2 6 -26 12 -53 14 l-49 2 23 -22z" fill="#724c96"/>
<path d="M2687 823 c-13 -13 -20 -14 -28 -6 -9 9 -19 2 -40 -27 -20 -27 -34 -38 -46 -34 -10 2 -7 -1 6 -8 20 -10 25 -9 37 7 8 10 14 15 14 10 0 -5 9 1 21 13 11 12 25 20 30 16 5 -3 8 0 7 7 -2 8 6 13 19 14 12 0 25 4 30 9 5 5 3 6 -4 2 -7 -4 -13 -2 -13 3 0 16 -13 13 -33 -6z" fill="#724c96"/>
<path d="M1020 818 c-116 -19 -108 -14 -112 -62 -2 -36 0 -44 19 -53 16 -8 27 -7 40 2 17 13 16 14 -7 24 l-25 10 23 7 c13 4 21 13 20 23 -2 10 5 17 20 19 12 2 22 -1 22 -7 0 -6 7 -8 15 -5 8 4 15 10 15 15 0 4 -7 5 -17 2 -10 -4 -14 -2 -9 5 3 6 25 10 47 10 22 0 42 2 45 5 9 9 -51 13 -96 5z" fill="#724c96"/>
<path d="M2822 803 c-9 -3 -3 -12 17 -24 36 -22 41 -23 41 -9 0 5 -12 13 -26 16 -19 5 -22 9 -12 15 14 9 1 11 -20 2z" fill="#724c96"/>
<path d="M755 780 c-3 -5 -16 -10 -28 -10 -16 0 -18 -3 -9 -12 9 -9 21 -7 54 10 39 20 41 22 16 22 -15 0 -30 -4 -33 -10z" fill="#724c96"/>
<path d="M853 761 c-6 -17 -7 -31 -2 -31 24 0 5 -18 -31 -30 -22 -7 -40 -17 -40 -22 0 -5 -4 -6 -10 -3 -6 3 -7 -1 -4 -9 7 -17 -20 -23 -30 -7 -3 5 -19 11 -36 13 -33 5 -29 -7 5 -15 12 -3 6 -5 -15 -6 -27 -1 -31 -4 -20 -11 13 -8 12 -10 -2 -10 -10 0 -18 -4 -18 -8 0 -4 24 -9 53 -10 48 -1 50 0 33 13 -11 8 -15 15 -9 15 7 0 18 -6 26 -14 16 -16 53 -14 50 2 -2 6 17 28 42 48 32 28 42 41 34 50 -7 9 -5 15 8 23 16 9 16 10 1 11 -9 0 -18 7 -20 16 -2 10 -7 5 -15 -15z" fill="#724c96"/>
<path d="M1152 760 c-7 -16 -12 -42 -9 -57 4 -27 4 -27 6 4 0 18 7 36 15 40 8 5 11 15 7 25 -5 15 -8 13 -19 -12z" fill="#724c96"/>
<path d="M2022 773 c-5 -10 -7 -23 -5 -30 6 -17 -26 -63 -44 -63 -8 0 -12 4 -9 9 8 12 -13 8 -41 -7 -29 -16 -34 -15 -26 5 5 11 -1 9 -16 -6 -20 -20 -30 -22 -72 -17 -28 4 -49 3 -49 -3 0 -9 -23 -15 -112 -30 -26 -4 -51 -11 -55 -16 -5 -4 2 -5 15 -2 12 3 22 2 22 -3 0 -4 12 -10 28 -12 40 -7 126 -32 132 -38 6 -6 45 -13 78 -14 12 -1 22 -7 22 -13 0 -7 5 -13 11 -13 5 0 7 5 4 10 -3 6 0 10 8 10 8 0 17 -6 20 -13 3 -7 23 -19 46 -27 28 -9 38 -16 29 -22 -9 -5 -10 -8 -1 -8 6 0 13 -15 15 -32 2 -23 10 -36 27 -45 33 -16 51 -4 20 13 -13 7 -19 13 -12 14 18 0 -8 72 -29 78 -10 2 -18 8 -18 13 0 5 -11 9 -25 9 -14 0 -25 5 -25 10 0 6 6 10 14 10 18 0 30 16 13 18 -7 1 -31 3 -55 5 -56 6 -66 17 -16 18 34 0 36 1 16 10 -13 5 -36 10 -52 11 -16 1 -32 8 -34 15 -3 7 1 10 8 7 7 -3 16 2 19 10 5 13 87 34 110 28 4 -1 7 2 7 8 0 6 8 10 18 10 21 1 54 25 45 33 -3 4 0 7 7 7 7 0 10 3 7 7 -4 3 0 17 8 30 13 20 13 23 1 23 -8 0 -21 3 -29 6 -9 3 -19 -2 -25 -13z m-224 -159 c12 -8 25 -13 30 -11 4 2 15 -4 25 -15 21 -22 19 -22 -24 -1 -44 21 -76 43 -63 43 5 0 20 -7 32 -16z" fill="#724c96"/>
<path d="M2728 779 c-10 -5 -18 -17 -18 -25 0 -9 -5 -12 -12 -8 -7 4 -8 3 -4 -4 4 -7 -7 -18 -26 -28 -19 -10 -27 -19 -20 -22 7 -2 19 2 27 8 11 9 15 9 15 1 0 -6 5 -11 11 -11 6 0 9 8 7 18 -4 21 38 62 63 62 13 0 17 -5 12 -17 -4 -14 -3 -15 6 -7 31 29 -20 57 -61 33z" fill="#724c96"/>
<path d="M1205 760 c-3 -11 -3 -24 0 -30 3 -5 -1 -10 -10 -10 -10 0 -13 5 -9 12 4 6 3 8 -4 4 -12 -7 -12 -46 0 -46 4 0 7 -3 6 -7 -4 -13 22 -53 33 -53 6 0 7 9 3 23 -8 24 -8 24 0 85 5 43 -8 58 -19 22z" fill="#724c96"/>
<path d="M1899 775 c-3 -2 -21 -5 -42 -7 -38 -2 -48 -12 -23 -21 7 -3 19 0 25 6 9 9 11 8 6 -5 -6 -15 -4 -16 19 -5 14 7 26 18 26 25 0 13 -4 15 -11 7z" fill="#724c96"/>
<path d="M643 738 c-1 -14 4 -18 20 -16 26 4 26 19 0 29 -14 5 -19 2 -20 -13z" fill="#724c96"/>
<path d="M1285 750 c3 -5 0 -10 -7 -10 -9 0 -9 -3 2 -10 24 -16 40 -12 40 10 0 14 -7 20 -21 20 -11 0 -17 -4 -14 -10z" fill="#724c96"/>
<path d="M2904 750 c-5 -5 -20 -11 -34 -13 -26 -4 -37 -21 -20 -32 5 -3 13 1 16 9 3 9 12 16 19 16 7 0 18 7 25 15 14 17 10 21 -6 5z" fill="#724c96"/>
<path d="M1057 743 c-4 -3 -7 -19 -7 -35 0 -25 -4 -28 -31 -28 -17 0 -28 -4 -24 -10 3 -5 12 -7 20 -3 8 3 15 0 15 -6 0 -6 -9 -11 -19 -11 -11 0 -23 -5 -26 -11 -4 -6 -13 -8 -20 -5 -16 6 -39 -19 -31 -33 4 -6 38 -9 76 -9 l69 2 -37 16 c-25 12 -39 13 -44 6 -4 -6 -10 -7 -15 -3 -12 12 19 27 43 21 12 -3 25 -1 28 5 4 6 2 11 -4 11 -6 0 -9 4 -5 10 3 5 13 6 21 3 14 -5 15 -3 5 15 -6 12 -9 33 -5 47 6 25 3 31 -9 18z" fill="#724c96"/>
<path d="M2632 734 c-7 -7 -18 -12 -25 -10 -6 1 -9 1 -4 -1 4 -3 7 -11 7 -19 0 -8 5 -14 11 -14 5 0 8 4 4 10 -3 5 6 15 21 23 18 10 22 16 13 19 -8 3 -20 -1 -27 -8z" fill="#724c96"/>
<path d="M560 704 c0 -19 24 -44 44 -44 37 0 38 12 1 31 -37 20 -45 22 -45 13z" fill="#724c96"/>
<path d="M2328 698 c-7 -7 -33 -13 -56 -14 -26 0 -47 -7 -52 -15 -13 -20 -3 -24 15 -5 12 11 28 15 56 11 28 -3 45 0 55 10 12 11 20 12 35 4 11 -5 29 -7 41 -3 14 4 18 2 14 -5 -10 -16 -1 -14 13 3 10 12 7 14 -23 10 -19 -2 -38 0 -41 6 -9 14 -41 13 -57 -2z" fill="#724c96"/>
<path d="M2860 680 c-12 -12 -19 -24 -16 -28 4 -3 16 4 28 16 12 12 19 24 16 28 -4 3 -16 -4 -28 -16z" fill="#724c96"/>
<path d="M859 647 c-20 -23 -39 -54 -43 -67 -6 -19 -5 -21 3 -10 9 13 11 12 11 -5 1 -18 2 -17 11 4 8 19 12 21 24 11 12 -10 15 -10 16 1 0 8 4 5 10 -6 7 -16 8 -12 6 18 -2 20 0 37 4 37 14 0 19 34 6 47 -10 11 -19 6 -48 -30z" fill="#724c96"/>
<path d="M2525 672 c-12 -9 -27 -26 -35 -37 -12 -15 -8 -14 16 5 17 14 40 30 50 37 14 9 15 12 4 12 -8 0 -24 -7 -35 -17z" fill="#724c96"/>
<path d="M2617 659 c-9 -11 -13 -27 -10 -34 2 -8 -5 -18 -16 -25 -26 -14 -27 -25 -1 -27 11 -1 20 4 20 10 0 7 9 18 20 25 15 9 19 20 16 38 -7 36 -12 39 -29 13z" fill="#724c96"/>
<path d="M156 631 c-18 -18 -24 -31 -17 -35 6 -4 11 -1 11 7 0 8 11 18 25 21 25 6 33 20 17 30 -5 3 -21 -8 -36 -23z" fill="#724c96"/>
<path d="M2544 652 c-6 -4 -16 -17 -23 -30 -11 -21 -10 -22 6 -13 10 5 26 12 36 15 10 3 17 11 15 18 -5 15 -20 20 -34 10z" fill="#724c96"/>
<path d="M2420 640 c-13 -8 -12 -10 3 -10 10 0 15 -4 12 -10 -12 -20 12 -10 31 13 10 12 12 16 4 10 -17 -15 -34 -17 -25 -3 8 13 -5 13 -25 0z" fill="#724c96"/>
<path d="M403 630 c43 -8 53 -16 59 -44 1 -11 8 -21 15 -23 14 -5 -14 58 -31 69 -6 4 -27 7 -46 7 l-35 -1 38 -8z" fill="#724c96"/>
<path d="M50 621 c0 -12 40 -41 57 -41 9 0 7 6 -4 18 -10 11 -21 17 -25 15 -5 -2 -8 1 -8 6 0 6 -4 11 -10 11 -5 0 -10 -4 -10 -9z" fill="#724c96"/>
<path d="M2 578 c2 -18 11 -24 38 -26 l35 -4 -28 26 c-34 32 -49 33 -45 4z" fill="#724c96"/>
<path d="M710 550 c-12 -8 -11 -10 8 -10 12 0 22 -4 22 -10 0 -11 46 -13 104 -3 l39 6 -49 13 c-59 16 -104 17 -124 4z" fill="#724c96"/>
<path d="M981 543 c-1 -8 -15 -14 -33 -14 l-33 -1 30 -8 30 -8 -32 -1 c-26 -1 -30 -4 -26 -22 4 -15 12 -20 29 -16 13 2 25 1 26 -4 2 -4 14 -1 28 6 l25 14 -30 1 c-26 1 -27 3 -10 10 13 6 15 9 5 9 -13 1 -13 2 0 11 20 13 70 13 70 0 0 -5 -4 -10 -10 -10 -5 0 -10 -4 -10 -10 0 -5 10 -10 23 -9 12 0 17 3 11 5 -6 3 -9 16 -6 29 5 28 1 29 -45 16 -22 -7 -33 -6 -37 2 -3 9 -5 8 -5 0z" fill="#724c96"/>
<path d="M856 512 c9 -5 8 -11 -2 -20 -12 -10 -14 -10 -14 3 0 8 -5 15 -11 15 -11 0 -2 -41 11 -50 4 -3 14 -18 23 -35 9 -16 16 -24 17 -16 0 7 6 11 13 8 10 -4 13 5 12 29 -2 34 -28 74 -49 74 -8 0 -7 -3 0 -8z" fill="#724c96"/>
<path d="M703 493 c7 -12 77 -16 77 -5 0 4 -18 9 -41 11 -22 1 -38 -2 -36 -6z" fill="#724c96"/>
<path d="M2530 445 c-19 -25 -38 -41 -44 -37 -6 3 0 -8 14 -25 14 -17 29 -28 33 -26 5 3 -1 12 -12 20 -17 12 -19 17 -9 28 7 8 19 21 26 30 7 8 18 12 24 9 7 -5 9 -2 5 8 -3 9 0 21 6 27 7 7 7 11 1 11 -6 0 -25 -20 -44 -45z" fill="#724c96"/>
<path d="M1585 470 c25 -11 112 -11 145 0 16 5 -8 8 -70 8 -62 0 -88 -2 -75 -8z" fill="#724c96"/>
<path d="M1960 462 c0 -19 26 -61 48 -78 11 -8 13 -22 8 -50 -13 -83 -1 -112 30 -75 10 11 28 21 39 21 32 1 50 20 88 100 20 41 36 72 37 68 0 -4 12 -3 26 2 27 11 97 3 90 -9 -3 -4 4 -8 15 -8 16 -2 17 1 8 18 -9 18 -19 20 -84 18 -64 -2 -76 -5 -97 -28 -14 -14 -30 -36 -37 -49 -7 -12 -16 -20 -21 -17 -5 3 -16 -9 -24 -27 -12 -28 -14 -30 -15 -10 -1 31 -17 28 -29 -5 -9 -27 -9 -27 -9 9 1 25 -6 45 -20 60 -12 13 -25 35 -28 51 -8 30 -25 37 -25 9z" fill="#724c96"/>
<path d="M920 446 c0 -22 20 -30 21 -9 0 14 2 15 7 3 4 -8 15 -16 25 -16 21 -2 21 3 3 22 -19 18 -56 18 -56 0z" fill="#724c96"/>
<path d="M1412 444 c7 -7 290 -6 297 1 2 3 -65 5 -149 5 -84 0 -151 -3 -148 -6z" fill="#724c96"/>
<path d="M1094 425 c-4 -8 -19 -15 -34 -15 -16 0 -32 -5 -35 -10 -4 -7 3 -9 22 -5 27 6 27 6 8 -10 -11 -9 -19 -18 -17 -20 10 -19 -2 -27 -38 -23 -22 2 -36 1 -32 -3 4 -4 29 -9 55 -12 47 -5 48 -4 67 34 38 73 60 63 69 -33 1 -5 10 -8 20 -8 24 0 23 42 -2 71 -10 11 -17 23 -17 28 0 8 -32 21 -53 21 -4 0 -10 -7 -13 -15z" fill="#724c96"/>
<path d="M1668 431 c-124 -6 -190 -21 -91 -21 93 0 233 13 233 21 0 5 -3 8 -7 7 -5 -1 -65 -4 -135 -7z" fill="#724c96"/>
<path d="M2370 415 c-6 -15 -3 -21 14 -26 24 -7 36 -3 36 12 0 6 -9 7 -21 4 -15 -5 -19 -4 -15 4 4 6 20 11 36 11 16 0 31 3 34 8 2 4 -14 7 -36 7 -31 0 -42 -5 -48 -20z" fill="#724c96"/>
<path d="M502 414 c-12 -8 -22 -10 -22 -5 0 6 -5 11 -10 11 -7 0 -7 -7 0 -20 12 -22 -3 -34 -35 -28 -10 2 -20 -3 -23 -11 -3 -10 2 -12 19 -8 13 3 33 2 44 -2 12 -5 25 -3 34 6 8 8 22 12 32 10 11 -3 19 -1 19 4 0 5 -13 9 -30 9 -20 0 -30 5 -30 15 0 12 4 13 19 5 25 -13 41 -13 18 1 -9 6 -15 14 -12 20 9 13 3 11 -23 -7z" fill="#724c96"/>
<path d="M305 401 c9 -8 94 -8 89 1 -3 4 -25 7 -50 6 -25 0 -42 -3 -39 -7z" fill="#724c96"/>
<path d="M232 388 c3 -7 25 -18 51 -25 25 -6 51 -15 58 -19 8 -5 9 -3 4 7 -8 12 -6 12 9 0 9 -8 15 -20 12 -28 -3 -8 -2 -12 3 -9 5 3 14 -9 20 -26 7 -21 8 -34 2 -36 -12 -4 -3 -32 11 -32 5 0 22 -9 38 -20 15 -11 30 -17 33 -13 4 3 13 0 22 -7 9 -7 18 -10 21 -7 3 3 -19 22 -49 42 -30 20 -57 45 -60 56 -4 16 -3 18 8 9 11 -9 12 -7 8 8 -4 16 2 20 26 24 24 4 28 2 20 -9 -12 -14 -12 -14 55 -18 16 -1 42 5 57 14 23 13 31 13 41 3 17 -17 -2 -46 -30 -47 -38 0 -26 -20 24 -37 27 -10 55 -18 62 -18 24 0 12 18 -23 34 -34 17 -39 36 -9 36 18 0 18 8 -2 28 -13 12 -14 17 -4 20 7 3 23 16 34 29 12 14 35 26 55 28 43 5 55 16 15 13 -16 -1 -36 2 -44 7 -8 4 -12 5 -8 0 10 -11 -20 -38 -36 -32 -8 3 -13 -1 -12 -11 1 -11 -7 -17 -19 -18 -11 0 -31 -6 -45 -14 -28 -16 -90 -21 -87 -7 3 13 -48 26 -63 17 -8 -5 -23 3 -41 21 -17 17 -39 29 -54 29 -15 0 -36 5 -47 11 -15 8 -19 8 -14 0 4 -6 3 -11 -3 -11 -5 0 -13 5 -16 10 -9 14 -27 12 -23 -2z" fill="#724c96"/>
<path d="M1645 393 c-11 -2 -63 -8 -115 -13 l-95 -9 101 4 c55 1 108 -1 117 -6 13 -8 15 -6 11 5 -5 12 7 16 63 19 l68 3 -65 1 c-36 0 -74 -1 -85 -4z" fill="#724c96"/>
<path d="M1863 383 c30 -5 35 -18 11 -27 -13 -5 -14 -9 -3 -22 11 -14 13 -14 21 1 22 39 18 51 -20 52 -27 0 -30 -1 -9 -4z" fill="#724c96"/>
<path d="M2430 372 c0 -13 11 -33 24 -46 23 -20 33 -22 122 -19 94 2 148 13 68 13 -22 0 -46 6 -53 13 -11 10 -12 9 -6 -2 6 -11 -4 -13 -54 -9 -66 5 -81 15 -75 52 2 11 1 15 -2 7 -5 -11 -8 -11 -15 0 -6 10 -9 8 -9 -9z" fill="#724c96"/>
<path d="M1694 373 c7 -7 98 -5 105 3 2 2 -22 4 -54 4 -32 0 -55 -3 -51 -7z" fill="#724c96"/>
<path d="M1124 356 c5 -16 4 -17 -9 -6 -9 7 -15 8 -15 2 0 -6 -3 -19 -7 -29 -6 -16 -5 -16 10 -4 9 7 17 10 17 5 0 -5 5 -1 11 9 8 14 8 22 -1 30 -10 9 -11 8 -6 -7z" fill="#724c96"/>
<path d="M230 350 l-25 -7 27 -8 c29 -7 52 1 43 16 -7 10 -10 10 -45 -1z" fill="#724c96"/>
<path d="M2350 350 c-7 -4 3 -21 25 -44 20 -21 39 -36 42 -32 4 3 -6 19 -21 35 l-28 29 23 4 c23 3 23 4 -3 9 -15 3 -32 3 -38 -1z" fill="#724c96"/>
<path d="M1688 343 c17 -2 47 -2 65 0 17 2 3 4 -33 4 -36 0 -50 -2 -32 -4z" fill="#724c96"/>
<path d="M290 329 c0 -6 8 -13 18 -16 10 -2 23 -13 30 -24 10 -16 9 -19 -4 -19 -8 0 -12 -5 -9 -10 11 -17 35 9 27 28 -6 18 -42 51 -54 52 -5 0 -8 -5 -8 -11z" fill="#724c96"/>
<path d="M1534 318 c-6 -10 155 -9 178 0 10 4 -26 7 -78 7 -53 0 -98 -3 -100 -7z" fill="#724c96"/>
<path d="M1713 304 c4 -4 45 -7 92 -7 47 0 88 3 92 7 3 3 -38 6 -92 6 -54 0 -95 -3 -92 -6z" fill="#724c96"/>
<path d="M136 286 c2 -6 18 -17 35 -23 17 -7 28 -16 25 -21 -3 -5 6 -14 20 -20 13 -7 29 -23 34 -37 7 -18 17 -25 36 -25 14 0 24 -5 22 -11 -3 -10 53 -81 59 -75 9 9 -18 56 -32 56 -8 0 -15 5 -15 12 0 7 -9 21 -20 33 -11 11 -34 36 -52 55 -44 48 -124 88 -112 56z" fill="#724c96"/>
<path d="M1042 277 c-8 -9 0 -11 34 -8 51 4 53 7 7 15 -18 4 -35 1 -41 -7z" fill="#724c96"/>
<path d="M1167 279 c11 -13 4 -19 -48 -43 -33 -15 -75 -40 -93 -57 -41 -36 -66 -37 -99 -4 -21 22 -32 25 -66 21 -34 -4 -39 -2 -34 12 3 9 3 14 -1 11 -11 -10 -16 -49 -6 -49 5 0 12 5 15 10 3 6 11 10 17 10 7 0 7 -4 -1 -13 -8 -11 -3 -13 29 -12 22 1 45 -4 51 -11 7 -9 5 -12 -8 -9 -10 1 -26 -2 -37 -7 -13 -7 -21 -6 -27 3 -6 10 -15 10 -46 1 -21 -6 -48 -14 -60 -17 -26 -7 -32 -35 -8 -35 8 0 15 4 15 8 0 9 59 32 83 32 9 0 17 -7 17 -16 0 -10 5 -14 15 -10 14 5 64 -11 75 -25 3 -3 25 -9 50 -13 31 -4 40 -3 30 4 -8 5 -26 10 -40 10 -14 0 -38 12 -55 26 -29 25 -29 25 -5 19 14 -4 27 -7 30 -7 19 0 29 5 51 24 13 12 34 30 46 41 22 20 23 20 45 1 15 -12 18 -13 10 -3 -7 9 -10 24 -6 33 6 15 11 17 47 20 6 1 15 6 19 11 4 6 13 10 19 10 7 0 14 6 17 14 3 9 0 11 -7 7 -7 -4 -20 -2 -29 6 -15 11 -15 11 -5 -3z" fill="#724c96"/>
<path d="M1640 278 c0 -11 98 -10 104 1 4 5 -18 8 -49 8 -30 -1 -55 -5 -55 -9z" fill="#724c96"/>
<path d="M2719 271 c8 -5 20 -7 27 -4 7 2 21 0 32 -6 16 -8 21 -7 26 4 4 12 -5 15 -47 15 -34 0 -47 -3 -38 -9z" fill="#724c96"/>
<path d="M113 263 c-8 -3 -3 -13 14 -29 14 -13 29 -24 33 -24 5 0 18 -17 30 -37 13 -21 25 -32 27 -25 7 18 20 15 26 -8 3 -11 10 -20 16 -20 5 0 3 13 -7 29 -9 16 -18 28 -20 26 -2 -1 -21 15 -42 36 -21 21 -46 39 -55 39 -9 0 -13 5 -10 10 7 11 6 11 -12 3z" fill="#724c96"/>
<path d="M475 260 c-3 -5 -11 -8 -16 -5 -5 4 -9 4 -9 1 0 -3 9 -10 20 -16 17 -9 19 -8 13 7 -6 16 -5 16 10 4 9 -7 15 -16 12 -20 -2 -4 5 -15 15 -24 12 -10 17 -23 14 -34 -4 -11 -3 -14 3 -6 5 8 18 1 43 -23 33 -33 64 -48 40 -19 -6 8 -8 20 -4 27 12 19 14 39 3 32 -5 -3 -9 0 -9 7 0 8 -11 10 -35 6 -20 -3 -33 -2 -30 3 3 5 -4 11 -15 15 -11 4 -18 10 -15 14 2 5 -4 16 -14 25 -13 12 -21 14 -26 6z" fill="#724c96"/>
<path d="M2143 263 c4 -3 0 -17 -9 -31 -8 -13 -13 -30 -10 -38 3 -8 0 -14 -6 -14 -8 0 -9 -3 -2 -10 7 -7 19 -7 35 -1 17 7 19 10 7 10 -31 1 -14 76 19 84 11 3 7 5 -11 6 -16 0 -26 -2 -23 -6z" fill="#724c96"/>
<path d="M2200 261 c0 -5 5 -11 11 -13 5 -2 11 -10 13 -18 2 -8 7 -26 13 -40 6 -14 13 -32 16 -40 4 -12 6 -11 6 3 1 12 9 17 32 17 16 0 28 4 25 9 -3 4 -17 6 -31 3 -22 -4 -26 0 -31 27 -4 17 -10 31 -15 31 -5 0 -9 7 -9 15 0 8 -7 15 -15 15 -8 0 -15 -4 -15 -9z" fill="#724c96"/>
<path d="M1630 239 c-52 -3 -93 -6 -90 -8 13 -6 253 -5 263 1 21 13 -35 16 -173 7z" fill="#724c96"/>
<path d="M1874 228 c0 -10 6 -18 13 -18 7 0 13 4 13 9 0 5 8 11 18 13 10 3 5 6 -13 9 -25 4 -31 1 -31 -13z" fill="#724c96"/>
<path d="M2825 220 c-5 -22 -13 -30 -28 -31 -21 -1 -21 -2 -2 -6 11 -3 24 -11 28 -19 12 -21 30 -18 19 4 -5 9 -7 32 -5 50 7 40 -3 42 -12 2z" fill="#724c96"/>
<path d="M850 230 c-7 -4 4 -10 27 -14 21 -4 51 -20 68 -34 16 -15 24 -20 17 -11 -6 9 -10 18 -7 21 3 3 -3 12 -13 21 -20 19 -74 28 -92 17z" fill="#724c96"/>
<path d="M2732 215 c-7 -15 -8 -25 -2 -25 6 0 10 8 11 18 0 9 3 12 5 5 6 -14 34 -6 34 10 0 6 -3 7 -7 4 -3 -4 -11 -2 -18 3 -8 7 -15 3 -23 -15z" fill="#724c96"/>
<path d="M653 174 c0 -8 6 -13 13 -10 7 3 18 -2 24 -10 7 -8 20 -14 29 -13 10 0 11 2 4 6 -7 2 -13 9 -13 14 0 6 8 5 20 -1 12 -6 20 -7 20 -1 0 5 10 12 23 14 12 2 2 5 -23 6 -25 1 -57 4 -71 6 -17 2 -26 -1 -26 -11z" fill="#724c96"/>
<path d="M2720 175 c0 -3 8 -15 19 -26 18 -20 18 -20 17 3 -1 13 -8 24 -18 26 -10 2 -18 1 -18 -3z" fill="#724c96"/>
<path d="M1970 125 c7 -9 16 -12 19 -7 3 5 26 10 49 10 34 1 42 -2 38 -14 -3 -8 -1 -14 4 -14 6 0 10 9 10 20 0 18 -7 20 -66 20 -59 0 -65 -2 -54 -15z" fill="#724c96"/>
<path d="M250 103 c0 -12 81 -56 88 -49 10 11 -33 46 -61 52 -15 2 -27 1 -27 -3z" fill="#724c96"/>
<path d="M861 64 c6 -8 18 -14 26 -14 8 0 28 -7 46 -15 32 -15 32 -15 8 2 -14 10 -40 23 -58 29 -29 10 -32 10 -22 -2z" fill="#724c96"/>
<path d="M1095 60 c-16 -7 -11 -9 22 -9 23 -1 50 -4 60 -7 16 -6 16 -5 -2 9 -22 18 -49 20 -80 7z" fill="#724c96"/>
<path d="M965 45 c11 -9 28 -14 38 -11 9 2 35 -4 57 -15 52 -25 152 -26 171 -2 8 9 9 14 3 10 -20 -12 -118 -10 -149 3 -16 7 -49 14 -73 16 -23 2 -48 6 -55 9 -6 4 -3 -1 8 -10z" fill="#724c96"/>
<path d="M1282 52 c-7 -5 17 -9 53 -9 55 0 70 -5 91 -23 13 -13 24 -19 24 -12 0 6 -12 20 -26 31 -28 22 -115 29 -142 13z" fill="#724c96"/>
<path d="M1908 19 c18 -19 24 -21 31 -10 6 9 11 10 15 2 4 -6 15 -11 24 -11 11 0 7 6 -12 15 -15 8 -32 12 -37 9 -6 -3 -18 0 -27 7 -9 7 -7 2 6 -12z" fill="#724c96"/>
</g>
</svg>
