<svg xmlns="http://www.w3.org/2000/svg"
     width="300.000000pt"
     height="300.000000pt"
     viewBox="0 0 300 300"
     role="img"
     aria-label="Simplified tournament bracket logo (8-team regions)">
  <g fill="none" stroke="#724c96" stroke-width="3" stroke-linecap="round" stroke-linejoin="round">
    <path d="M 24.00 35.00 H 54.00 M 24.00 49.29 H 54.00 M 24.00 63.57 H 54.00 M 24.00 77.86 H 54.00 M 24.00 92.14 H 54.00 M 24.00 106.43 H 54.00 M 24.00 120.71 H 54.00 M 24.00 135.00 H 54.00 M 54.00 35.00 H 82.00 M 54.00 49.29 H 82.00 M 82.00 35.00 V 49.29 M 54.00 63.57 H 82.00 M 54.00 77.86 H 82.00 M 82.00 63.57 V 77.86 M 54.00 92.14 H 82.00 M 54.00 106.43 H 82.00 M 82.00 92.14 V 106.43 M 54.00 120.71 H 82.00 M 54.00 135.00 H 82.00 M 82.00 120.71 V 135.00 M 82.00 42.14 H 110.00 M 82.00 70.71 H 110.00 M 110.00 42.14 V 70.71 M 82.00 99.29 H 110.00 M 82.00 127.86 H 110.00 M 110.00 99.29 V 127.86 M 110.00 56.43 H 126.00 M 110.00 113.57 H 126.00 M 126.00 56.43 V 113.57 M 24.00 165.00 H 54.00 M 24.00 179.29 H 54.00 M 24.00 193.57 H 54.00 M 24.00 207.86 H 54.00 M 24.00 222.14 H 54.00 M 24.00 236.43 H 54.00 M 24.00 250.71 H 54.00 M 24.00 265.00 H 54.00 M 54.00 165.00 H 82.00 M 54.00 179.29 H 82.00 M 82.00 165.00 V 179.29 M 54.00 193.57 H 82.00 M 54.00 207.86 H 82.00 M 82.00 193.57 V 207.86 M 54.00 222.14 H 82.00 M 54.00 236.43 H 82.00 M 82.00 222.14 V 236.43 M 54.00 250.71 H 82.00 M 54.00 265.00 H 82.00 M 82.00 250.71 V 265.00 M 82.00 172.14 H 110.00 M 82.00 200.71 H 110.00 M 110.00 172.14 V 200.71 M 82.00 229.29 H 110.00 M 82.00 257.86 H 110.00 M 110.00 229.29 V 257.86 M 110.00 186.43 H 126.00 M 110.00 243.57 H 126.00 M 126.00 186.43 V 243.57 M 276.00 35.00 H 246.00 M 276.00 49.29 H 246.00 M 276.00 63.57 H 246.00 M 276.00 77.86 H 246.00 M 276.00 92.14 H 246.00 M 276.00 106.43 H 246.00 M 276.00 120.71 H 246.00 M 276.00 135.00 H 246.00 M 246.00 35.00 H 218.00 M 246.00 49.29 H 218.00 M 218.00 35.00 V 49.29 M 246.00 63.57 H 218.00 M 246.00 77.86 H 218.00 M 218.00 63.57 V 77.86 M 246.00 92.14 H 218.00 M 246.00 106.43 H 218.00 M 218.00 92.14 V 106.43 M 246.00 120.71 H 218.00 M 246.00 135.00 H 218.00 M 218.00 120.71 V 135.00 M 218.00 42.14 H 190.00 M 218.00 70.71 H 190.00 M 190.00 42.14 V 70.71 M 218.00 99.29 H 190.00 M 218.00 127.86 H 190.00 M 190.00 99.29 V 127.86 M 190.00 56.43 H 174.00 M 190.00 113.57 H 174.00 M 174.00 56.43 V 113.57 M 276.00 165.00 H 246.00 M 276.00 179.29 H 246.00 M 276.00 193.57 H 246.00 M 276.00 207.86 H 246.00 M 276.00 222.14 H 246.00 M 276.00 236.43 H 246.00 M 276.00 250.71 H 246.00 M 276.00 265.00 H 246.00 M 246.00 165.00 H 218.00 M 246.00 179.29 H 218.00 M 218.00 165.00 V 179.29 M 246.00 193.57 H 218.00 M 246.00 207.86 H 218.00 M 218.00 193.57 V 207.86 M 246.00 222.14 H 218.00 M 246.00 236.43 H 218.00 M 218.00 222.14 V 236.43 M 246.00 250.71 H 218.00 M 246.00 265.00 H 218.00 M 218.00 250.71 V 265.00 M 218.00 172.14 H 190.00 M 218.00 200.71 H 190.00 M 190.00 172.14 V 200.71 M 218.00 229.29 H 190.00 M 218.00 257.86 H 190.00 M 190.00 229.29 V 257.86 M 190.00 186.43 H 174.00 M 190.00 243.57 H 174.00 M 174.00 186.43 V 243.57 M 126.00 85.00 H 140.00 M 126.00 215.00 H 140.00 M 140.00 85.00 V 215.00 M 140.00 150.00 H 144.00 M 174.00 85.00 H 160.00 M 174.00 215.00 H 160.00 M 160.00 85.00 V 215.00 M 160.00 150.00 H 156.00 M 144.00 150.00 H 156.00"/>
  </g>
  <circle cx="150.00" cy="150.00" r="3.5" fill="#724c96"/>
</svg>
