<svg xmlns="http://www.w3.org/2000/svg"
     width="300.000000pt"
     height="300.000000pt"
     viewBox="0 0 300 300"
     role="img"
     aria-label="64-team tournament bracket logo">
  <g fill="none" stroke="#724c96" stroke-width="3" stroke-linecap="round" stroke-linejoin="round">
    <path d="M 12.00 20.00 H 34.00 M 12.00 28.39 H 34.00 M 12.00 36.77 H 34.00 M 12.00 45.16 H 34.00 M 12.00 53.55 H 34.00 M 12.00 61.94 H 34.00 M 12.00 70.32 H 34.00 M 12.00 78.71 H 34.00 M 12.00 87.10 H 34.00 M 12.00 95.48 H 34.00 M 12.00 103.87 H 34.00 M 12.00 112.26 H 34.00 M 12.00 120.65 H 34.00 M 12.00 129.03 H 34.00 M 12.00 137.42 H 34.00 M 12.00 145.81 H 34.00 M 12.00 154.19 H 34.00 M 12.00 162.58 H 34.00 M 12.00 170.97 H 34.00 M 12.00 179.35 H 34.00 M 12.00 187.74 H 34.00 M 12.00 196.13 H 34.00 M 12.00 204.52 H 34.00 M 12.00 212.90 H 34.00 M 12.00 221.29 H 34.00 M 12.00 229.68 H 34.00 M 12.00 238.06 H 34.00 M 12.00 246.45 H 34.00 M 12.00 254.84 H 34.00 M 12.00 263.23 H 34.00 M 12.00 271.61 H 34.00 M 12.00 280.00 H 34.00 M 34.00 20.00 H 68.00 M 34.00 28.39 H 68.00 M 68.00 20.00 V 28.39 M 34.00 36.77 H 68.00 M 34.00 45.16 H 68.00 M 68.00 36.77 V 45.16 M 34.00 53.55 H 68.00 M 34.00 61.94 H 68.00 M 68.00 53.55 V 61.94 M 34.00 70.32 H 68.00 M 34.00 78.71 H 68.00 M 68.00 70.32 V 78.71 M 34.00 87.10 H 68.00 M 34.00 95.48 H 68.00 M 68.00 87.10 V 95.48 M 34.00 103.87 H 68.00 M 34.00 112.26 H 68.00 M 68.00 103.87 V 112.26 M 34.00 120.65 H 68.00 M 34.00 129.03 H 68.00 M 68.00 120.65 V 129.03 M 34.00 137.42 H 68.00 M 34.00 145.81 H 68.00 M 68.00 137.42 V 145.81 M 34.00 154.19 H 68.00 M 34.00 162.58 H 68.00 M 68.00 154.19 V 162.58 M 34.00 170.97 H 68.00 M 34.00 179.35 H 68.00 M 68.00 170.97 V 179.35 M 34.00 187.74 H 68.00 M 34.00 196.13 H 68.00 M 68.00 187.74 V 196.13 M 34.00 204.52 H 68.00 M 34.00 212.90 H 68.00 M 68.00 204.52 V 212.90 M 34.00 221.29 H 68.00 M 34.00 229.68 H 68.00 M 68.00 221.29 V 229.68 M 34.00 238.06 H 68.00 M 34.00 246.45 H 68.00 M 68.00 238.06 V 246.45 M 34.00 254.84 H 68.00 M 34.00 263.23 H 68.00 M 68.00 254.84 V 263.23 M 34.00 271.61 H 68.00 M 34.00 280.00 H 68.00 M 68.00 271.61 V 280.00 M 68.00 24.19 H 102.00 M 68.00 40.97 H 102.00 M 102.00 24.19 V 40.97 M 68.00 57.74 H 102.00 M 68.00 74.52 H 102.00 M 102.00 57.74 V 74.52 M 68.00 91.29 H 102.00 M 68.00 108.06 H 102.00 M 102.00 91.29 V 108.06 M 68.00 124.84 H 102.00 M 68.00 141.61 H 102.00 M 102.00 124.84 V 141.61 M 68.00 158.39 H 102.00 M 68.00 175.16 H 102.00 M 102.00 158.39 V 175.16 M 68.00 191.94 H 102.00 M 68.00 208.71 H 102.00 M 102.00 191.94 V 208.71 M 68.00 225.48 H 102.00 M 68.00 242.26 H 102.00 M 102.00 225.48 V 242.26 M 68.00 259.03 H 102.00 M 68.00 275.81 H 102.00 M 102.00 259.03 V 275.81 M 102.00 32.58 H 136.00 M 102.00 66.13 H 136.00 M 136.00 32.58 V 66.13 M 102.00 99.68 H 136.00 M 102.00 133.23 H 136.00 M 136.00 99.68 V 133.23 M 102.00 166.77 H 136.00 M 102.00 200.32 H 136.00 M 136.00 166.77 V 200.32 M 102.00 233.87 H 136.00 M 102.00 267.42 H 136.00 M 136.00 233.87 V 267.42 M 136.00 49.35 H 170.00 M 136.00 116.45 H 170.00 M 170.00 49.35 V 116.45 M 136.00 183.55 H 170.00 M 136.00 250.65 H 170.00 M 170.00 183.55 V 250.65 M 170.00 82.90 H 194.00 M 170.00 217.10 H 194.00 M 194.00 82.90 V 217.10 M 288.00 20.00 H 266.00 M 288.00 28.39 H 266.00 M 288.00 36.77 H 266.00 M 288.00 45.16 H 266.00 M 288.00 53.55 H 266.00 M 288.00 61.94 H 266.00 M 288.00 70.32 H 266.00 M 288.00 78.71 H 266.00 M 288.00 87.10 H 266.00 M 288.00 95.48 H 266.00 M 288.00 103.87 H 266.00 M 288.00 112.26 H 266.00 M 288.00 120.65 H 266.00 M 288.00 129.03 H 266.00 M 288.00 137.42 H 266.00 M 288.00 145.81 H 266.00 M 288.00 154.19 H 266.00 M 288.00 162.58 H 266.00 M 288.00 170.97 H 266.00 M 288.00 179.35 H 266.00 M 288.00 187.74 H 266.00 M 288.00 196.13 H 266.00 M 288.00 204.52 H 266.00 M 288.00 212.90 H 266.00 M 288.00 221.29 H 266.00 M 288.00 229.68 H 266.00 M 288.00 238.06 H 266.00 M 288.00 246.45 H 266.00 M 288.00 254.84 H 266.00 M 288.00 263.23 H 266.00 M 288.00 271.61 H 266.00 M 288.00 280.00 H 266.00 M 266.00 20.00 H 232.00 M 266.00 28.39 H 232.00 M 232.00 20.00 V 28.39 M 266.00 36.77 H 232.00 M 266.00 45.16 H 232.00 M 232.00 36.77 V 45.16 M 266.00 53.55 H 232.00 M 266.00 61.94 H 232.00 M 232.00 53.55 V 61.94 M 266.00 70.32 H 232.00 M 266.00 78.71 H 232.00 M 232.00 70.32 V 78.71 M 266.00 87.10 H 232.00 M 266.00 95.48 H 232.00 M 232.00 87.10 V 95.48 M 266.00 103.87 H 232.00 M 266.00 112.26 H 232.00 M 232.00 103.87 V 112.26 M 266.00 120.65 H 232.00 M 266.00 129.03 H 232.00 M 232.00 120.65 V 129.03 M 266.00 137.42 H 232.00 M 266.00 145.81 H 232.00 M 232.00 137.42 V 145.81 M 266.00 154.19 H 232.00 M 266.00 162.58 H 232.00 M 232.00 154.19 V 162.58 M 266.00 170.97 H 232.00 M 266.00 179.35 H 232.00 M 232.00 170.97 V 179.35 M 266.00 187.74 H 232.00 M 266.00 196.13 H 232.00 M 232.00 187.74 V 196.13 M 266.00 204.52 H 232.00 M 266.00 212.90 H 232.00 M 232.00 204.52 V 212.90 M 266.00 221.29 H 232.00 M 266.00 229.68 H 232.00 M 232.00 221.29 V 229.68 M 266.00 238.06 H 232.00 M 266.00 246.45 H 232.00 M 232.00 238.06 V 246.45 M 266.00 254.84 H 232.00 M 266.00 263.23 H 232.00 M 232.00 254.84 V 263.23 M 266.00 271.61 H 232.00 M 266.00 280.00 H 232.00 M 232.00 271.61 V 280.00 M 232.00 24.19 H 198.00 M 232.00 40.97 H 198.00 M 198.00 24.19 V 40.97 M 232.00 57.74 H 198.00 M 232.00 74.52 H 198.00 M 198.00 57.74 V 74.52 M 232.00 91.29 H 198.00 M 232.00 108.06 H 198.00 M 198.00 91.29 V 108.06 M 232.00 124.84 H 198.00 M 232.00 141.61 H 198.00 M 198.00 124.84 V 141.61 M 232.00 158.39 H 198.00 M 232.00 175.16 H 198.00 M 198.00 158.39 V 175.16 M 232.00 191.94 H 198.00 M 232.00 208.71 H 198.00 M 198.00 191.94 V 208.71 M 232.00 225.48 H 198.00 M 232.00 242.26 H 198.00 M 198.00 225.48 V 242.26 M 232.00 259.03 H 198.00 M 232.00 275.81 H 198.00 M 198.00 259.03 V 275.81 M 198.00 32.58 H 164.00 M 198.00 66.13 H 164.00 M 164.00 32.58 V 66.13 M 198.00 99.68 H 164.00 M 198.00 133.23 H 164.00 M 164.00 99.68 V 133.23 M 198.00 166.77 H 164.00 M 198.00 200.32 H 164.00 M 164.00 166.77 V 200.32 M 198.00 233.87 H 164.00 M 198.00 267.42 H 164.00 M 164.00 233.87 V 267.42 M 164.00 49.35 H 130.00 M 164.00 116.45 H 130.00 M 130.00 49.35 V 116.45 M 164.00 183.55 H 130.00 M 164.00 250.65 H 130.00 M 130.00 183.55 V 250.65 M 130.00 82.90 H 106.00 M 130.00 217.10 H 106.00 M 106.00 82.90 V 217.10 M 194.00 150.00 H 144.00 M 106.00 150.00 H 156.00"/>
  </g>
  <circle cx="150.00" cy="150.00" r="3.5" fill="#724c96"/>
</svg>
